<?xml version="1.0" standalone="no"?>
<!DOCTYPE svg PUBLIC "-//W3C//DTD SVG 20010904//EN"
 "http://www.w3.org/TR/2001/REC-SVG-20010904/DTD/svg10.dtd">
<svg version="1.0" xmlns="http://www.w3.org/2000/svg"
 width="700.000000pt" height="700.000000pt" viewBox="0 0 700.000000 700.000000"
 preserveAspectRatio="xMidYMid meet">
<metadata>
Created by potrace 1.14, written by Peter Selinger 2001-2017
</metadata>
<g transform="translate(0.000000,700.000000) scale(0.100000,-0.100000)"
fill="#000000" stroke="none">
<path d="M0 3500 l0 -3500 3500 0 3500 0 0 3500 0 3500 -3500 0 -3500 0 0
-3500z m5602 2622 c21 -13 45 -40 57 -66 21 -43 21 -48 24 -1319 l2 -1276 191
-188 c105 -103 199 -194 208 -201 13 -10 16 -33 16 -125 0 -162 -5 -182 -60
-239 l-46 -48 -2345 0 -2345 0 -36 38 c-54 56 -58 70 -58 201 0 66 -5 132 -10
147 -11 27 -5 34 187 226 l198 198 0 353 c0 193 -1 368 -2 387 0 19 2 443 5
942 l7 906 25 27 c22 23 56 43 100 58 8 3 877 5 1930 4 l1915 -2 37 -23z
m-4911 -353 c9 -56 15 -61 70 -54 40 6 50 4 55 -10 4 -10 0 -21 -12 -29 -11
-8 -30 -23 -44 -34 -25 -20 -25 -21 -7 -50 21 -37 22 -72 2 -72 -8 0 -28 14
-43 30 -16 17 -35 30 -41 30 -7 0 -26 -13 -43 -30 -16 -16 -36 -30 -44 -30
-18 0 -18 31 1 56 25 33 18 59 -22 85 -21 13 -38 31 -38 39 0 19 51 26 70 10
23 -19 45 -4 45 30 0 38 17 73 33 67 7 -2 14 -19 18 -38z m5899 -3558 c12 -47
23 -52 72 -35 31 11 39 10 48 -1 9 -11 5 -17 -24 -29 -31 -13 -36 -19 -36 -49
0 -22 6 -37 15 -41 18 -6 20 -36 3 -36 -6 0 -19 7 -29 16 -25 23 -65 10 -84
-26 -27 -51 -49 -32 -33 28 11 41 0 58 -47 66 -50 10 -47 36 4 36 62 0 71 7
71 54 0 68 23 78 40 17z m-554 -676 c4 -8 3 -26 0 -40 -5 -20 -13 -25 -37 -25
-34 0 -53 32 -37 63 11 21 66 23 74 2z m-2519 -47 c-3 -7 -5 -2 -5 12 0 14 2
19 5 13 2 -7 2 -19 0 -25z m0 -130 c-3 -8 -6 -5 -6 6 -1 11 2 17 5 13 3 -3 4
-12 1 -19z m0 -175 c-3 -10 -5 -4 -5 12 0 17 2 24 5 18 2 -7 2 -21 0 -30z
m263 -83 c13 -8 13 -12 1 -32 -8 -13 -23 -39 -34 -58 -10 -19 -28 -52 -40 -72
-72 -121 -137 -237 -137 -245 0 -6 -9 -18 -19 -27 -11 -10 -22 -30 -26 -44
l-7 -27 -24 30 c-25 30 -99 156 -188 318 -16 28 -37 64 -47 78 -29 41 -34 76
-12 82 35 9 518 7 533 -3z"/>
<path d="M1710 6037 l-25 -13 -3 -1242 c-1 -846 1 -1249 8 -1263 11 -19 40
-19 1950 -19 1907 0 1939 0 1950 19 12 23 14 2469 2 2487 -4 5 -18 18 -32 27
-23 16 -156 17 -1925 17 -1512 0 -1905 -3 -1925 -13z m3675 -196 c7 -12 7
-2120 0 -2132 -9 -13 -3470 -12 -3496 1 -19 10 -19 33 -19 1065 0 993 1 1055
18 1064 22 14 3488 15 3497 2z"/>
<path d="M1928 5799 c-17 -9 -18 -69 -18 -1021 0 -951 1 -1012 18 -1024 14
-11 319 -13 1714 -14 l1697 0 11 38 c13 44 10 1999 -3 2020 -11 16 -3392 17
-3419 1z m2120 -847 c4 -37 -12 -53 -191 -201 -51 -42 -106 -88 -122 -102 -17
-15 -79 -68 -140 -119 -117 -97 -121 -101 -230 -195 -38 -33 -84 -71 -101 -85
-18 -14 -63 -51 -101 -83 -71 -60 -105 -70 -126 -36 -14 22 10 51 105 131 41
35 127 108 192 163 64 55 133 112 153 127 33 25 133 111 172 148 9 8 39 33 66
55 48 38 169 141 228 195 56 50 90 51 95 2z m-768 -357 c17 -20 0 -59 -38 -89
-15 -12 -48 -39 -73 -61 -26 -22 -82 -70 -125 -107 -44 -36 -146 -123 -228
-192 -82 -69 -157 -126 -166 -126 -9 0 -25 9 -35 20 -16 18 -16 20 3 45 22 28
98 96 152 137 19 14 44 35 56 46 20 19 189 162 337 285 71 59 96 68 117 42z"/>
<path d="M1522 3284 c-94 -95 -111 -118 -102 -130 11 -12 136 -14 885 -14 686
0 875 -3 883 -12 6 -7 13 -31 17 -53 8 -45 22 -76 39 -87 6 -4 185 -8 398 -8
l387 0 15 22 c9 12 16 36 16 53 0 16 6 41 13 55 l13 25 883 5 c693 4 885 8
888 17 3 7 -46 65 -108 128 l-112 115 -2001 0 -2000 0 -114 -116z"/>
<path d="M1300 3045 c-8 -10 -11 -52 -8 -139 2 -104 6 -128 21 -143 17 -17
127 -18 2326 -21 2262 -2 2309 -2 2332 17 23 18 24 27 27 146 3 88 0 130 -8
140 -11 13 -138 15 -914 15 -495 0 -907 -4 -915 -9 -7 -5 -17 -30 -22 -57 -17
-93 -28 -95 -535 -92 l-416 3 -22 26 c-13 15 -26 45 -30 68 -4 25 -13 44 -25
51 -13 7 -317 10 -909 10 -765 0 -891 -2 -902 -15z"/>
</g>
</svg>
