<svg width="61" height="61" viewBox="0 0 61 61" fill="none" xmlns="http://www.w3.org/2000/svg">
<path d="M45.75 6.29063C41.3656 3.52656 36.1234 1.90625 30.5 1.90625C24.8766 1.90625 19.6344 3.52656 15.25 6.29063V54.6141C19.6344 57.3781 24.8766 58.9984 30.5 58.9984C36.1234 58.9984 41.3656 57.3781 45.75 54.6141V6.29063Z" fill="#F9F9F9"/>
<path d="M45.75 6.29053V54.614C53.7562 49.6577 59.0938 40.5077 59.0938 30.4046C59.0938 20.3015 53.7562 11.3421 45.75 6.29053ZM15.25 6.29053C7.24375 11.3421 1.90625 20.4921 1.90625 30.4999C1.90625 40.5077 7.24375 49.6577 15.25 54.7093V6.29053ZM40.9843 29.9279C40.603 29.7373 40.5077 29.3561 40.603 29.1654L41.4609 25.7342L38.2202 26.4014C38.1249 26.4014 37.7437 26.4014 37.6484 25.7342L37.3624 24.5904L35.0749 27.2592C35.0749 27.2592 33.5499 28.8795 34.0265 26.4014L34.9796 21.1592L33.1687 22.1123C33.0733 22.1123 32.6921 22.2076 32.2155 21.2545L30.5 18.1093L28.7844 21.2546C28.3078 22.2077 27.9266 22.1124 27.8313 22.1124L26.0203 21.1593L26.9734 26.4015C27.45 28.8796 25.925 27.2593 25.925 27.2593L23.6375 24.5905L23.3516 25.7343C23.1609 26.4015 22.875 26.4015 22.7797 26.4015L19.4438 25.7343L20.3969 29.1655C20.3969 29.4515 20.3969 29.7374 20.0156 29.928L19.0625 30.4999C19.0625 30.4999 22.875 33.5499 24.1141 34.5983C24.4 34.789 24.9719 35.3608 24.7812 36.028L24.3047 37.3624L29.5469 36.5999C29.8328 36.5999 30.4047 36.5999 30.3094 37.4577L30.0234 42.8905H30.9766L30.6906 37.4577C30.6906 36.5999 31.2625 36.5999 31.4531 36.5999L36.6953 37.3624L36.2188 36.028C36.0281 35.3608 36.6 34.789 36.8859 34.5983C38.125 33.5499 41.9375 30.4999 41.9375 30.4999L40.4125 29.6421" fill="#ED4C5C"/>
</svg>
