<svg width="58" height="58" viewBox="0 0 58 58" fill="none" xmlns="http://www.w3.org/2000/svg">
<path d="M29 56.1875C44.0152 56.1875 56.1875 44.0152 56.1875 29C56.1875 13.9848 44.0152 1.8125 29 1.8125C13.9848 1.8125 1.8125 13.9848 1.8125 29C1.8125 44.0152 13.9848 56.1875 29 56.1875Z" fill="#ED4C5C"/>
<path d="M19.9375 25.7375L27.1875 30.8125L24.4688 22.475L31.7188 17.2188H22.7469L19.9375 9.0625L17.2188 17.2188H8.15625L15.4062 22.475L12.6875 30.8125L19.9375 25.7375ZM31.9906 31.9906L29.9062 32.4437L31.9 33.2594V35.3438L33.2594 33.8031L35.2531 34.5281L34.075 32.8063L35.3438 31.175L33.2594 31.6281L31.9906 29.9062V31.9906ZM35.0719 25.8281L33.5312 27.1875L35.6156 27.0062L36.5219 29L36.8844 26.9156L38.9688 26.7344L37.1562 25.6469L37.6094 23.5625L36.0687 24.9219L34.2562 23.8344L35.0719 25.8281ZM35.6156 18.7594L36.25 20.8438L36.8844 18.85H38.9688L37.3375 17.5812L37.9719 15.4969L36.25 16.7656L34.6188 15.4062L35.2531 17.4906L33.5312 18.6688L35.6156 18.7594ZM31.9906 11.5094V13.5938L33.2594 11.8719L35.3438 12.325L34.075 10.6938L35.2531 8.97187L33.2594 9.7875L31.9 8.15625V10.2406L29.9062 11.0562L31.9906 11.5094Z" fill="#FFE62E"/>
</svg>
