<svg width="368" height="360" viewBox="0 0 368 360" fill="none" xmlns="http://www.w3.org/2000/svg">
<circle cx="105.81" cy="105.81" r="80.0731" transform="rotate(-65.8715 105.81 105.81)" fill="#D0F1EB"/>
<circle cx="105.81" cy="105.81" r="80.0731" transform="rotate(-65.8715 105.81 105.81)" fill="url(#paint0_linear_509_18)"/>
<circle cx="265.006" cy="59.5314" r="41.4194" transform="rotate(-65.8715 265.006 59.5314)" fill="#D0F1EB"/>
<circle cx="265.006" cy="59.5314" r="41.4194" transform="rotate(-65.8715 265.006 59.5314)" fill="url(#paint1_linear_509_18)"/>
<circle cx="197.135" cy="245.66" r="58.9223" transform="rotate(-65.8715 197.135 245.66)" fill="#D0F1EB"/>
<circle cx="197.135" cy="245.66" r="58.9223" transform="rotate(-65.8715 197.135 245.66)" fill="url(#paint2_linear_509_18)"/>
<circle cx="103.558" cy="328.083" r="23.6744" transform="rotate(-65.8715 103.558 328.083)" fill="#D0F1EB"/>
<circle cx="103.558" cy="328.083" r="23.6744" transform="rotate(-65.8715 103.558 328.083)" fill="url(#paint3_linear_509_18)"/>
<circle cx="79.5577" cy="261.083" r="23.6744" transform="rotate(-65.8715 79.5577 261.083)" fill="#D0F1EB"/>
<circle cx="79.5577" cy="261.083" r="23.6744" transform="rotate(-65.8715 79.5577 261.083)" fill="url(#paint4_linear_509_18)"/>
<circle cx="228.558" cy="136.083" r="23.6744" transform="rotate(-65.8715 228.558 136.083)" fill="#D0F1EB"/>
<circle cx="228.558" cy="136.083" r="23.6744" transform="rotate(-65.8715 228.558 136.083)" fill="url(#paint5_linear_509_18)"/>
<circle cx="345.232" cy="64.069" r="16.7168" transform="rotate(-65.8715 345.232 64.069)" fill="#D0F1EB"/>
<circle cx="345.232" cy="64.069" r="16.7168" transform="rotate(-65.8715 345.232 64.069)" fill="url(#paint6_linear_509_18)"/>
<circle cx="323.372" cy="91.898" r="10.5332" transform="rotate(-65.8715 323.372 91.898)" fill="#D0F1EB"/>
<circle cx="323.372" cy="91.898" r="10.5332" transform="rotate(-65.8715 323.372 91.898)" fill="url(#paint7_linear_509_18)"/>
<circle cx="245.372" cy="180.898" r="10.5332" transform="rotate(-65.8715 245.372 180.898)" fill="#D0F1EB"/>
<circle cx="245.372" cy="180.898" r="10.5332" transform="rotate(-65.8715 245.372 180.898)" fill="url(#paint8_linear_509_18)"/>
<defs>
<linearGradient id="paint0_linear_509_18" x1="226.997" y1="155.182" x2="105.81" y2="170.263" gradientUnits="userSpaceOnUse">
<stop stop-color="#E4F9F5"/>
<stop offset="0.97286" stop-color="#E4F9F5" stop-opacity="0"/>
</linearGradient>
<linearGradient id="paint1_linear_509_18" x1="327.692" y1="85.0702" x2="265.006" y2="92.8712" gradientUnits="userSpaceOnUse">
<stop stop-color="#E4F9F5"/>
<stop offset="0.97286" stop-color="#E4F9F5" stop-opacity="0"/>
</linearGradient>
<linearGradient id="paint2_linear_509_18" x1="286.311" y1="281.991" x2="197.135" y2="293.088" gradientUnits="userSpaceOnUse">
<stop stop-color="#E4F9F5"/>
<stop offset="0.97286" stop-color="#E4F9F5" stop-opacity="0"/>
</linearGradient>
<linearGradient id="paint3_linear_509_18" x1="139.388" y1="342.68" x2="103.558" y2="347.139" gradientUnits="userSpaceOnUse">
<stop stop-color="#E4F9F5"/>
<stop offset="0.97286" stop-color="#E4F9F5" stop-opacity="0"/>
</linearGradient>
<linearGradient id="paint4_linear_509_18" x1="115.388" y1="275.68" x2="79.5577" y2="280.139" gradientUnits="userSpaceOnUse">
<stop stop-color="#E4F9F5"/>
<stop offset="0.97286" stop-color="#E4F9F5" stop-opacity="0"/>
</linearGradient>
<linearGradient id="paint5_linear_509_18" x1="264.388" y1="150.68" x2="228.558" y2="155.139" gradientUnits="userSpaceOnUse">
<stop stop-color="#E4F9F5"/>
<stop offset="0.97286" stop-color="#E4F9F5" stop-opacity="0"/>
</linearGradient>
<linearGradient id="paint6_linear_509_18" x1="370.532" y1="74.3764" x2="345.232" y2="77.5249" gradientUnits="userSpaceOnUse">
<stop stop-color="#E4F9F5"/>
<stop offset="0.97286" stop-color="#E4F9F5" stop-opacity="0"/>
</linearGradient>
<linearGradient id="paint7_linear_509_18" x1="339.314" y1="98.3926" x2="323.372" y2="100.376" gradientUnits="userSpaceOnUse">
<stop stop-color="#E4F9F5"/>
<stop offset="0.97286" stop-color="#E4F9F5" stop-opacity="0"/>
</linearGradient>
<linearGradient id="paint8_linear_509_18" x1="261.314" y1="187.393" x2="245.372" y2="189.376" gradientUnits="userSpaceOnUse">
<stop stop-color="#E4F9F5"/>
<stop offset="0.97286" stop-color="#E4F9F5" stop-opacity="0"/>
</linearGradient>
</defs>
</svg>
