<svg width="372" height="307" viewBox="0 0 372 307" fill="none" xmlns="http://www.w3.org/2000/svg">
<circle cx="37.7322" cy="54.7321" r="41.4194" transform="rotate(-65.8715 37.7322 54.7321)" fill="#D0F1EB"/>
<circle cx="37.7322" cy="54.7321" r="41.4194" transform="rotate(-65.8715 37.7322 54.7321)" fill="url(#paint0_linear_509_17)"/>
<circle cx="137.284" cy="85.2836" r="23.6744" transform="rotate(-65.8715 137.284 85.2836)" fill="#D0F1EB"/>
<circle cx="137.284" cy="85.2836" r="23.6744" transform="rotate(-65.8715 137.284 85.2836)" fill="url(#paint1_linear_509_17)"/>
<circle cx="58.5121" cy="154.512" r="35.9555" transform="rotate(-65.8715 58.5121 154.512)" fill="#D0F1EB"/>
<circle cx="58.5121" cy="154.512" r="35.9555" transform="rotate(-65.8715 58.5121 154.512)" fill="url(#paint2_linear_509_17)"/>
<circle cx="335.778" cy="217.09" r="16.7168" transform="rotate(-65.8715 335.778 217.09)" fill="#D0F1EB"/>
<circle cx="335.778" cy="217.09" r="16.7168" transform="rotate(-65.8715 335.778 217.09)" fill="url(#paint3_linear_509_17)"/>
<circle cx="357.919" cy="263.918" r="10.5332" transform="rotate(-65.8715 357.919 263.918)" fill="#D0F1EB"/>
<circle cx="357.919" cy="263.918" r="10.5332" transform="rotate(-65.8715 357.919 263.918)" fill="url(#paint4_linear_509_17)"/>
<circle cx="137.919" cy="136.919" r="10.5332" transform="rotate(-65.8715 137.919 136.919)" fill="#D0F1EB"/>
<circle cx="137.919" cy="136.919" r="10.5332" transform="rotate(-65.8715 137.919 136.919)" fill="url(#paint5_linear_509_17)"/>
<circle cx="182.919" cy="56.9185" r="10.5332" transform="rotate(-65.8715 182.919 56.9185)" fill="#D0F1EB"/>
<circle cx="182.919" cy="56.9185" r="10.5332" transform="rotate(-65.8715 182.919 56.9185)" fill="url(#paint6_linear_509_17)"/>
<circle cx="222.625" cy="238.625" r="51.1764" transform="rotate(-65.8715 222.625 238.625)" fill="#D0F1EB"/>
<circle cx="222.625" cy="238.625" r="51.1764" transform="rotate(-65.8715 222.625 238.625)" fill="url(#paint7_linear_509_17)"/>
<circle cx="310.006" cy="143.531" r="41.4194" transform="rotate(-65.8715 310.006 143.531)" fill="#D0F1EB"/>
<circle cx="310.006" cy="143.531" r="41.4194" transform="rotate(-65.8715 310.006 143.531)" fill="url(#paint8_linear_509_17)"/>
<circle cx="218.284" cy="132.284" r="23.6744" transform="rotate(-65.8715 218.284 132.284)" fill="#D0F1EB"/>
<circle cx="218.284" cy="132.284" r="23.6744" transform="rotate(-65.8715 218.284 132.284)" fill="url(#paint9_linear_509_17)"/>
<defs>
<linearGradient id="paint0_linear_509_17" x1="100.418" y1="80.2709" x2="37.7322" y2="88.0719" gradientUnits="userSpaceOnUse">
<stop stop-color="#E4F9F5"/>
<stop offset="0.97286" stop-color="#E4F9F5" stop-opacity="0"/>
</linearGradient>
<linearGradient id="paint1_linear_509_17" x1="173.114" y1="99.8811" x2="137.284" y2="104.34" gradientUnits="userSpaceOnUse">
<stop stop-color="#E4F9F5"/>
<stop offset="0.97286" stop-color="#E4F9F5" stop-opacity="0"/>
</linearGradient>
<linearGradient id="paint2_linear_509_17" x1="112.929" y1="176.682" x2="58.5121" y2="183.454" gradientUnits="userSpaceOnUse">
<stop stop-color="#E4F9F5"/>
<stop offset="0.97286" stop-color="#E4F9F5" stop-opacity="0"/>
</linearGradient>
<linearGradient id="paint3_linear_509_17" x1="361.078" y1="227.397" x2="335.778" y2="230.545" gradientUnits="userSpaceOnUse">
<stop stop-color="#E4F9F5"/>
<stop offset="0.97286" stop-color="#E4F9F5" stop-opacity="0"/>
</linearGradient>
<linearGradient id="paint4_linear_509_17" x1="373.86" y1="270.413" x2="357.919" y2="272.397" gradientUnits="userSpaceOnUse">
<stop stop-color="#E4F9F5"/>
<stop offset="0.97286" stop-color="#E4F9F5" stop-opacity="0"/>
</linearGradient>
<linearGradient id="paint5_linear_509_17" x1="153.86" y1="143.413" x2="137.919" y2="145.397" gradientUnits="userSpaceOnUse">
<stop stop-color="#E4F9F5"/>
<stop offset="0.97286" stop-color="#E4F9F5" stop-opacity="0"/>
</linearGradient>
<linearGradient id="paint6_linear_509_17" x1="198.86" y1="63.4132" x2="182.919" y2="65.397" gradientUnits="userSpaceOnUse">
<stop stop-color="#E4F9F5"/>
<stop offset="0.97286" stop-color="#E4F9F5" stop-opacity="0"/>
</linearGradient>
<linearGradient id="paint7_linear_509_17" x1="300.078" y1="270.18" x2="222.625" y2="279.819" gradientUnits="userSpaceOnUse">
<stop stop-color="#E4F9F5"/>
<stop offset="0.97286" stop-color="#E4F9F5" stop-opacity="0"/>
</linearGradient>
<linearGradient id="paint8_linear_509_17" x1="372.692" y1="169.07" x2="310.006" y2="176.871" gradientUnits="userSpaceOnUse">
<stop stop-color="#E4F9F5"/>
<stop offset="0.97286" stop-color="#E4F9F5" stop-opacity="0"/>
</linearGradient>
<linearGradient id="paint9_linear_509_17" x1="254.114" y1="146.881" x2="218.284" y2="151.34" gradientUnits="userSpaceOnUse">
<stop stop-color="#E4F9F5"/>
<stop offset="0.97286" stop-color="#E4F9F5" stop-opacity="0"/>
</linearGradient>
</defs>
</svg>
