<svg width="543" height="321" viewBox="0 0 543 321" fill="none" xmlns="http://www.w3.org/2000/svg">
<rect width="543" height="321" rx="17" fill="#E4F9F5"/>
<line x1="19" y1="98.5" x2="515" y2="98.5" stroke="#718380"/>
<line x1="19" y1="98.5" x2="515" y2="98.5" stroke="#718380"/>
<line x1="19" y1="98.5" x2="515" y2="98.5" stroke="#718380"/>
<line x1="19" y1="98.5" x2="515" y2="98.5" stroke="#718380"/>
<path d="M0 17C0 7.61116 7.61116 0 17 0H526C535.389 0 543 7.61116 543 17V40H0V17Z" fill="#ADD7CF"/>
<path d="M0 304C0 313.389 7.61116 321 17 321H526C535.389 321 543 313.389 543 304V275H0V304Z" fill="#ADD7CF"/>
<circle cx="19" cy="20" r="6" fill="#E4A5A5"/>
<circle cx="39" cy="20" r="6" fill="#E4DEBC"/>
<circle cx="59" cy="20" r="6" fill="#D0DFA5"/>
<line x1="19" y1="71.5" x2="515" y2="71.5" stroke="#718380"/>
<line x1="19" y1="71.5" x2="515" y2="71.5" stroke="#718380"/>
<line x1="19" y1="71.5" x2="515" y2="71.5" stroke="#718380"/>
<line x1="19" y1="71.5" x2="515" y2="71.5" stroke="#718380"/>
<path d="M32.7783 65H31.1309V56.4004H28.2051V55.0059H35.6973V56.4004H32.7783V65ZM43.7637 61.1992C43.7637 61.8281 43.6816 62.3864 43.5176 62.874C43.3535 63.3617 43.1143 63.7741 42.7998 64.1113C42.4854 64.444 42.1071 64.6992 41.665 64.877C41.223 65.0501 40.724 65.1367 40.168 65.1367C39.6484 65.1367 39.1722 65.0501 38.7393 64.877C38.3063 64.6992 37.9303 64.444 37.6113 64.1113C37.2969 63.7741 37.0531 63.3617 36.8799 62.874C36.7067 62.3864 36.6201 61.8281 36.6201 61.1992C36.6201 60.3652 36.7637 59.6589 37.0508 59.0801C37.3424 58.4967 37.7572 58.0524 38.2949 57.7471C38.8327 57.4417 39.473 57.2891 40.2158 57.2891C40.9131 57.2891 41.5283 57.4417 42.0615 57.7471C42.5947 58.0524 43.0117 58.4967 43.3125 59.0801C43.6133 59.6634 43.7637 60.3698 43.7637 61.1992ZM38.2744 61.1992C38.2744 61.7507 38.3405 62.2223 38.4727 62.6143C38.6094 63.0062 38.819 63.307 39.1016 63.5166C39.3841 63.7217 39.7487 63.8242 40.1953 63.8242C40.6419 63.8242 41.0065 63.7217 41.2891 63.5166C41.5716 63.307 41.779 63.0062 41.9111 62.6143C42.0433 62.2223 42.1094 61.7507 42.1094 61.1992C42.1094 60.6478 42.0433 60.1807 41.9111 59.7979C41.779 59.4105 41.5716 59.1165 41.2891 58.916C41.0065 58.7109 40.6396 58.6084 40.1885 58.6084C39.5231 58.6084 39.0378 58.8317 38.7324 59.2783C38.4271 59.7249 38.2744 60.3652 38.2744 61.1992Z" fill="#40514E" fill-opacity="0.7"/>
<path d="M35.082 88.2793C35.082 88.8717 34.9362 89.3822 34.6445 89.8105C34.3574 90.2389 33.9427 90.5671 33.4004 90.7949C32.8626 91.0228 32.2201 91.1367 31.4727 91.1367C31.1081 91.1367 30.7594 91.1162 30.4268 91.0752C30.0941 91.0342 29.7796 90.9749 29.4834 90.8975C29.1917 90.8154 28.9251 90.7174 28.6836 90.6035V89.0586C29.0892 89.2363 29.5426 89.3981 30.0439 89.5439C30.5452 89.6852 31.0557 89.7559 31.5752 89.7559C31.999 89.7559 32.3499 89.7012 32.6279 89.5918C32.9105 89.4779 33.1201 89.3184 33.2568 89.1133C33.3936 88.9036 33.4619 88.6598 33.4619 88.3818C33.4619 88.0856 33.3822 87.835 33.2227 87.6299C33.0632 87.4248 32.8216 87.238 32.498 87.0693C32.179 86.8962 31.778 86.7116 31.2949 86.5156C30.9668 86.3835 30.6523 86.2331 30.3516 86.0645C30.0553 85.8958 29.791 85.6976 29.5586 85.4697C29.3262 85.2419 29.1416 84.973 29.0049 84.6631C28.8727 84.3486 28.8066 83.9795 28.8066 83.5557C28.8066 82.9906 28.9411 82.5075 29.21 82.1064C29.4834 81.7054 29.8662 81.3978 30.3584 81.1836C30.8551 80.9694 31.4339 80.8623 32.0947 80.8623C32.6188 80.8623 33.111 80.917 33.5713 81.0264C34.0361 81.1357 34.4919 81.2907 34.9385 81.4912L34.4189 82.8105C34.0088 82.6419 33.61 82.5075 33.2227 82.4072C32.8398 82.307 32.4479 82.2568 32.0469 82.2568C31.7005 82.2568 31.4066 82.3092 31.165 82.4141C30.9235 82.5189 30.7389 82.667 30.6113 82.8584C30.4883 83.0452 30.4268 83.2686 30.4268 83.5283C30.4268 83.82 30.4974 84.0661 30.6387 84.2666C30.7845 84.4626 31.0078 84.6426 31.3086 84.8066C31.6139 84.9707 32.0059 85.153 32.4844 85.3535C33.0358 85.5814 33.5029 85.8206 33.8857 86.0713C34.2731 86.3219 34.5693 86.6227 34.7744 86.9736C34.9795 87.32 35.082 87.7552 35.082 88.2793ZM43.4424 83.4326V91H42.1777L41.959 89.9814H41.8701C41.7106 90.2412 41.5078 90.4577 41.2617 90.6309C41.0156 90.7995 40.7422 90.9248 40.4414 91.0068C40.1406 91.0934 39.8239 91.1367 39.4912 91.1367C38.9215 91.1367 38.4339 91.041 38.0283 90.8496C37.6273 90.6536 37.3197 90.3529 37.1055 89.9473C36.8913 89.5417 36.7842 89.0176 36.7842 88.375V83.4326H38.3975V88.0742C38.3975 88.6621 38.516 89.1019 38.7529 89.3936C38.9945 89.6852 39.3682 89.8311 39.874 89.8311C40.3617 89.8311 40.749 89.7308 41.0361 89.5303C41.3232 89.3298 41.526 89.0335 41.6445 88.6416C41.7676 88.2497 41.8291 87.7689 41.8291 87.1992V83.4326H43.4424ZM47.3525 80.3633V82.9268C47.3525 83.223 47.3434 83.5146 47.3252 83.8018C47.3115 84.0843 47.2979 84.3053 47.2842 84.4648H47.3525C47.5576 84.1367 47.8424 83.861 48.207 83.6377C48.5762 83.4098 49.0479 83.2959 49.6221 83.2959C50.5199 83.2959 51.2422 83.6263 51.7891 84.2871C52.3359 84.9434 52.6094 85.9163 52.6094 87.2061C52.6094 88.0628 52.484 88.7829 52.2334 89.3662C51.9827 89.9495 51.6296 90.3916 51.1738 90.6924C50.7227 90.9886 50.1917 91.1367 49.5811 91.1367C49.0068 91.1367 48.542 91.0319 48.1865 90.8223C47.8356 90.6081 47.5599 90.3597 47.3594 90.0771H47.2432L46.9492 91H45.7461V80.3633H47.3525ZM49.1982 84.6016C48.7425 84.6016 48.3802 84.6927 48.1113 84.875C47.847 85.0573 47.6556 85.3307 47.5371 85.6953C47.4186 86.0553 47.3571 86.5133 47.3525 87.0693V87.2129C47.3525 88.056 47.4847 88.7008 47.749 89.1475C48.0179 89.5941 48.5055 89.8174 49.2119 89.8174C49.7725 89.8174 50.2031 89.5918 50.5039 89.1406C50.8047 88.6849 50.9551 88.0332 50.9551 87.1855C50.9551 86.3288 50.8047 85.6839 50.5039 85.251C50.2077 84.818 49.7725 84.6016 49.1982 84.6016ZM53.71 94.3633C53.473 94.3633 53.2474 94.3451 53.0332 94.3086C52.819 94.2767 52.639 94.238 52.4932 94.1924V92.9072C52.6481 92.9528 52.7985 92.987 52.9443 93.0098C53.0902 93.0326 53.2565 93.0439 53.4434 93.0439C53.7396 93.0439 53.9834 92.9619 54.1748 92.7979C54.3708 92.6338 54.4688 92.3216 54.4688 91.8613V83.4326H56.0752V92.0049C56.0752 92.4652 55.9932 92.873 55.8291 93.2285C55.6696 93.584 55.4144 93.862 55.0635 94.0625C54.7171 94.263 54.266 94.3633 53.71 94.3633ZM54.373 81.416C54.373 81.0924 54.4596 80.8646 54.6328 80.7324C54.8105 80.6003 55.027 80.5342 55.2822 80.5342C55.5283 80.5342 55.7402 80.6003 55.918 80.7324C56.1003 80.8646 56.1914 81.0924 56.1914 81.416C56.1914 81.735 56.1003 81.9629 55.918 82.0996C55.7402 82.2318 55.5283 82.2979 55.2822 82.2979C55.027 82.2979 54.8105 82.2318 54.6328 82.0996C54.4596 81.9629 54.373 81.735 54.373 81.416ZM61.3936 83.2891C62.068 83.2891 62.6468 83.4281 63.1299 83.7061C63.613 83.984 63.9844 84.3783 64.2441 84.8887C64.5039 85.3991 64.6338 86.0098 64.6338 86.7207V87.582H59.582C59.6003 88.3158 59.7962 88.8809 60.1699 89.2773C60.5482 89.6738 61.0768 89.8721 61.7559 89.8721C62.2389 89.8721 62.6719 89.8265 63.0547 89.7354C63.4421 89.6396 63.8408 89.5007 64.251 89.3184V90.624C63.8727 90.8018 63.4876 90.9316 63.0957 91.0137C62.7038 91.0957 62.2344 91.1367 61.6875 91.1367C60.9447 91.1367 60.2907 90.9932 59.7256 90.7061C59.165 90.4144 58.7253 89.9814 58.4062 89.4072C58.0918 88.833 57.9346 88.1198 57.9346 87.2676C57.9346 86.4199 58.0781 85.6999 58.3652 85.1074C58.6523 84.515 59.0557 84.0638 59.5752 83.7539C60.0947 83.444 60.7008 83.2891 61.3936 83.2891ZM61.3936 84.499C60.8877 84.499 60.4775 84.6631 60.1631 84.9912C59.8532 85.3193 59.6709 85.8001 59.6162 86.4336H63.0615C63.057 86.0553 62.9932 85.7204 62.8701 85.4287C62.7516 85.137 62.5693 84.9092 62.3232 84.7451C62.0817 84.5811 61.7718 84.499 61.3936 84.499ZM69.4941 91.1367C68.7786 91.1367 68.1589 90.9977 67.6348 90.7197C67.1107 90.4417 66.7074 90.0156 66.4248 89.4414C66.1423 88.8672 66.001 88.138 66.001 87.2539C66.001 86.3333 66.1559 85.5814 66.4658 84.998C66.7757 84.4147 67.2041 83.984 67.751 83.7061C68.3024 83.4281 68.9336 83.2891 69.6445 83.2891C70.0957 83.2891 70.5036 83.3346 70.8682 83.4258C71.2373 83.5124 71.5495 83.6195 71.8047 83.7471L71.3262 85.0322C71.0482 84.9183 70.7633 84.8226 70.4717 84.7451C70.18 84.6676 69.8997 84.6289 69.6309 84.6289C69.1888 84.6289 68.8197 84.7269 68.5234 84.9229C68.2318 85.1188 68.013 85.4105 67.8672 85.7979C67.7259 86.1852 67.6553 86.666 67.6553 87.2402C67.6553 87.7962 67.7282 88.2656 67.874 88.6484C68.0199 89.0267 68.2363 89.3138 68.5234 89.5098C68.8105 89.7012 69.1637 89.7969 69.583 89.7969C69.9977 89.7969 70.3691 89.7467 70.6973 89.6465C71.0254 89.5462 71.3353 89.4163 71.627 89.2568V90.6514C71.3398 90.8154 71.0322 90.9362 70.7041 91.0137C70.376 91.0957 69.9727 91.1367 69.4941 91.1367ZM76.2207 89.8379C76.4303 89.8379 76.6377 89.8197 76.8428 89.7832C77.0479 89.7422 77.2347 89.6943 77.4033 89.6396V90.8564C77.2256 90.9339 76.9954 91 76.7129 91.0547C76.4303 91.1094 76.1364 91.1367 75.8311 91.1367C75.4027 91.1367 75.0176 91.0661 74.6758 90.9248C74.334 90.779 74.0628 90.5306 73.8623 90.1797C73.6618 89.8288 73.5615 89.3434 73.5615 88.7236V84.6562H72.5293V83.9385L73.6367 83.3711L74.1631 81.751H75.1748V83.4326H77.3418V84.6562H75.1748V88.7031C75.1748 89.0859 75.2705 89.3708 75.4619 89.5576C75.6533 89.7445 75.9062 89.8379 76.2207 89.8379Z" fill="#40514E" fill-opacity="0.7"/>
<path d="M106.016 59.0459C106.016 59.5293 105.953 59.9608 105.828 60.3403C105.702 60.7199 105.521 61.0404 105.285 61.3018C105.049 61.5632 104.762 61.7637 104.426 61.9033C104.093 62.0394 103.715 62.1074 103.292 62.1074C102.899 62.1074 102.537 62.0394 102.208 61.9033C101.882 61.7637 101.599 61.5632 101.359 61.3018C101.123 61.0404 100.938 60.7199 100.806 60.3403C100.677 59.9608 100.612 59.5293 100.612 59.0459C100.612 58.4014 100.722 57.8535 100.94 57.4023C101.158 56.9476 101.47 56.6021 101.875 56.3657C102.283 56.1258 102.768 56.0059 103.33 56.0059C103.867 56.0059 104.336 56.1258 104.737 56.3657C105.142 56.6056 105.455 56.953 105.677 57.4077C105.903 57.8589 106.016 58.4049 106.016 59.0459ZM101.536 59.0459C101.536 59.5186 101.599 59.9285 101.724 60.2759C101.849 60.6232 102.043 60.8918 102.304 61.0815C102.566 61.2713 102.902 61.3662 103.314 61.3662C103.722 61.3662 104.057 61.2713 104.318 61.0815C104.583 60.8918 104.778 60.6232 104.904 60.2759C105.029 59.9285 105.092 59.5186 105.092 59.0459C105.092 58.5768 105.029 58.1722 104.904 57.832C104.778 57.4883 104.585 57.2233 104.324 57.0371C104.062 56.8509 103.724 56.7578 103.309 56.7578C102.696 56.7578 102.247 56.9601 101.96 57.3647C101.678 57.7694 101.536 58.3298 101.536 59.0459ZM110.345 56.0059C111.043 56.0059 111.571 56.1777 111.929 56.5215C112.287 56.8617 112.466 57.4095 112.466 58.165V62H111.585V58.2241C111.585 57.7336 111.473 57.3665 111.247 57.123C111.025 56.8796 110.683 56.7578 110.221 56.7578C109.569 56.7578 109.111 56.9422 108.846 57.311C108.581 57.6799 108.449 58.2152 108.449 58.917V62H107.557V56.1133H108.277L108.411 56.9619H108.459C108.585 56.7542 108.744 56.5806 108.938 56.4409C109.131 56.2977 109.347 56.1903 109.587 56.1187C109.827 56.0435 110.08 56.0059 110.345 56.0059ZM115.2 62H114.303V53.6426H115.2V62ZM117.977 56.1133V62H117.085V56.1133H117.977ZM117.542 53.9111C117.689 53.9111 117.814 53.9595 117.918 54.0562C118.025 54.1493 118.079 54.2961 118.079 54.4966C118.079 54.6935 118.025 54.8403 117.918 54.937C117.814 55.0337 117.689 55.082 117.542 55.082C117.388 55.082 117.259 55.0337 117.155 54.937C117.055 54.8403 117.005 54.6935 117.005 54.4966C117.005 54.2961 117.055 54.1493 117.155 54.0562C117.259 53.9595 117.388 53.9111 117.542 53.9111ZM122.655 56.0059C123.354 56.0059 123.882 56.1777 124.24 56.5215C124.598 56.8617 124.777 57.4095 124.777 58.165V62H123.896V58.2241C123.896 57.7336 123.783 57.3665 123.558 57.123C123.336 56.8796 122.994 56.7578 122.532 56.7578C121.88 56.7578 121.422 56.9422 121.157 57.311C120.892 57.6799 120.759 58.2152 120.759 58.917V62H119.868V56.1133H120.587L120.722 56.9619H120.77C120.895 56.7542 121.055 56.5806 121.248 56.4409C121.441 56.2977 121.658 56.1903 121.898 56.1187C122.138 56.0435 122.39 56.0059 122.655 56.0059ZM128.88 56.0059C129.382 56.0059 129.811 56.1169 130.169 56.3389C130.528 56.5609 130.801 56.8724 130.991 57.2734C131.181 57.6709 131.276 58.1364 131.276 58.6699V59.2231H127.21C127.221 59.9142 127.393 60.4406 127.726 60.8022C128.059 61.1639 128.528 61.3447 129.133 61.3447C129.505 61.3447 129.835 61.3107 130.121 61.2427C130.408 61.1746 130.705 61.0744 131.013 60.9419V61.7261C130.715 61.8586 130.42 61.9552 130.126 62.0161C129.836 62.077 129.493 62.1074 129.095 62.1074C128.529 62.1074 128.035 61.9928 127.613 61.7637C127.194 61.5309 126.868 61.1908 126.635 60.7432C126.403 60.2956 126.286 59.7477 126.286 59.0996C126.286 58.4658 126.392 57.918 126.603 57.4561C126.818 56.9906 127.119 56.6325 127.505 56.3818C127.896 56.1312 128.354 56.0059 128.88 56.0059ZM128.87 56.7363C128.393 56.7363 128.014 56.8921 127.731 57.2036C127.448 57.5151 127.28 57.9502 127.226 58.5088H130.341C130.338 58.1579 130.282 57.8499 130.175 57.585C130.071 57.3164 129.912 57.1087 129.697 56.9619C129.482 56.8115 129.206 56.7363 128.87 56.7363ZM137.539 62H132.393V61.2534L134.493 59.1211C134.883 58.7272 135.211 58.3763 135.476 58.0684C135.745 57.7604 135.949 57.4578 136.088 57.1606C136.228 56.8599 136.298 56.5304 136.298 56.1724C136.298 55.7284 136.165 55.39 135.9 55.1572C135.639 54.9209 135.293 54.8027 134.864 54.8027C134.488 54.8027 134.155 54.8672 133.865 54.9961C133.575 55.125 133.278 55.3076 132.973 55.5439L132.495 54.9424C132.703 54.7669 132.928 54.6112 133.172 54.4751C133.419 54.339 133.682 54.2316 133.961 54.1528C134.244 54.0741 134.545 54.0347 134.864 54.0347C135.347 54.0347 135.764 54.1188 136.115 54.2871C136.466 54.4554 136.736 54.6953 136.926 55.0068C137.12 55.3184 137.216 55.689 137.216 56.1187C137.216 56.534 137.134 56.9207 136.969 57.2788C136.805 57.6333 136.574 57.986 136.276 58.3369C135.979 58.6842 135.632 59.0531 135.234 59.4434L133.526 61.146V61.1836H137.539V62ZM143.876 58.063C143.876 58.7004 143.828 59.2697 143.731 59.771C143.635 60.2723 143.483 60.6966 143.275 61.0439C143.067 61.3913 142.799 61.6562 142.469 61.8389C142.14 62.0179 141.744 62.1074 141.282 62.1074C140.699 62.1074 140.215 61.9481 139.832 61.6294C139.452 61.3107 139.168 60.8506 138.978 60.249C138.792 59.6439 138.699 58.9152 138.699 58.063C138.699 57.2251 138.783 56.5054 138.951 55.9038C139.123 55.2987 139.399 54.835 139.778 54.5127C140.158 54.1868 140.659 54.0239 141.282 54.0239C141.873 54.0239 142.36 54.1851 142.743 54.5073C143.126 54.826 143.411 55.2879 143.597 55.8931C143.783 56.4946 143.876 57.2179 143.876 58.063ZM139.596 58.063C139.596 58.7935 139.651 59.4022 139.762 59.8892C139.873 60.3761 140.052 60.7414 140.299 60.9849C140.55 61.2248 140.878 61.3447 141.282 61.3447C141.687 61.3447 142.013 61.2248 142.26 60.9849C142.51 60.745 142.691 60.3815 142.802 59.8945C142.917 59.4076 142.974 58.797 142.974 58.063C142.974 57.3433 142.919 56.7417 142.808 56.2583C142.697 55.7713 142.518 55.4061 142.271 55.1626C142.023 54.9155 141.694 54.792 141.282 54.792C140.87 54.792 140.541 54.9155 140.294 55.1626C140.047 55.4061 139.868 55.7713 139.757 56.2583C139.649 56.7417 139.596 57.3433 139.596 58.063ZM150.128 62H144.983V61.2534L147.083 59.1211C147.473 58.7272 147.801 58.3763 148.066 58.0684C148.334 57.7604 148.539 57.4578 148.678 57.1606C148.818 56.8599 148.888 56.5304 148.888 56.1724C148.888 55.7284 148.755 55.39 148.49 55.1572C148.229 54.9209 147.883 54.8027 147.454 54.8027C147.078 54.8027 146.745 54.8672 146.455 54.9961C146.165 55.125 145.867 55.3076 145.563 55.5439L145.085 54.9424C145.293 54.7669 145.518 54.6112 145.762 54.4751C146.009 54.339 146.272 54.2316 146.551 54.1528C146.834 54.0741 147.135 54.0347 147.454 54.0347C147.937 54.0347 148.354 54.1188 148.705 54.2871C149.056 54.4554 149.326 54.6953 149.516 55.0068C149.709 55.3184 149.806 55.689 149.806 56.1187C149.806 56.534 149.724 56.9207 149.559 57.2788C149.394 57.6333 149.163 57.986 148.866 58.3369C148.569 58.6842 148.222 59.0531 147.824 59.4434L146.116 61.146V61.1836H150.128V62ZM156.466 58.063C156.466 58.7004 156.418 59.2697 156.321 59.771C156.225 60.2723 156.072 60.6966 155.865 61.0439C155.657 61.3913 155.389 61.6562 155.059 61.8389C154.73 62.0179 154.334 62.1074 153.872 62.1074C153.288 62.1074 152.805 61.9481 152.422 61.6294C152.042 61.3107 151.758 60.8506 151.568 60.249C151.382 59.6439 151.289 58.9152 151.289 58.063C151.289 57.2251 151.373 56.5054 151.541 55.9038C151.713 55.2987 151.989 54.835 152.368 54.5127C152.748 54.1868 153.249 54.0239 153.872 54.0239C154.463 54.0239 154.95 54.1851 155.333 54.5073C155.716 54.826 156.001 55.2879 156.187 55.8931C156.373 56.4946 156.466 57.2179 156.466 58.063ZM152.186 58.063C152.186 58.7935 152.241 59.4022 152.352 59.8892C152.463 60.3761 152.642 60.7414 152.889 60.9849C153.14 61.2248 153.467 61.3447 153.872 61.3447C154.277 61.3447 154.603 61.2248 154.85 60.9849C155.1 60.745 155.281 60.3815 155.392 59.8945C155.507 59.4076 155.564 58.797 155.564 58.063C155.564 57.3433 155.508 56.7417 155.397 56.2583C155.286 55.7713 155.107 55.4061 154.86 55.1626C154.613 54.9155 154.284 54.792 153.872 54.792C153.46 54.792 153.131 54.9155 152.884 55.1626C152.637 55.4061 152.458 55.7713 152.347 56.2583C152.239 56.7417 152.186 57.3433 152.186 58.063ZM160.328 62.1074C159.798 62.1074 159.331 61.9982 158.926 61.7798C158.522 61.5614 158.207 61.2284 157.981 60.7808C157.755 60.3332 157.643 59.7692 157.643 59.0889C157.643 58.3763 157.761 57.7944 157.997 57.3433C158.237 56.8885 158.566 56.5519 158.985 56.3335C159.404 56.1151 159.881 56.0059 160.414 56.0059C160.708 56.0059 160.991 56.0363 161.263 56.0972C161.538 56.1545 161.764 56.2279 161.939 56.3174L161.671 57.064C161.492 56.9924 161.284 56.9279 161.048 56.8706C160.815 56.8133 160.597 56.7847 160.393 56.7847C159.984 56.7847 159.644 56.8724 159.372 57.0479C159.104 57.2233 158.901 57.4811 158.765 57.8213C158.633 58.1615 158.566 58.5804 158.566 59.0781C158.566 59.5544 158.631 59.9608 158.76 60.2974C158.892 60.634 159.087 60.8918 159.345 61.0708C159.607 61.2463 159.932 61.334 160.323 61.334C160.634 61.334 160.915 61.3018 161.166 61.2373C161.417 61.1693 161.644 61.0905 161.848 61.001V61.7959C161.651 61.8962 161.431 61.9731 161.188 62.0269C160.948 62.0806 160.661 62.1074 160.328 62.1074ZM168.32 59.0459C168.32 59.5293 168.258 59.9608 168.132 60.3403C168.007 60.7199 167.826 61.0404 167.59 61.3018C167.354 61.5632 167.067 61.7637 166.73 61.9033C166.397 62.0394 166.02 62.1074 165.597 62.1074C165.203 62.1074 164.842 62.0394 164.512 61.9033C164.186 61.7637 163.903 61.5632 163.664 61.3018C163.427 61.0404 163.243 60.7199 163.11 60.3403C162.981 59.9608 162.917 59.5293 162.917 59.0459C162.917 58.4014 163.026 57.8535 163.245 57.4023C163.463 56.9476 163.775 56.6021 164.179 56.3657C164.587 56.1258 165.073 56.0059 165.635 56.0059C166.172 56.0059 166.641 56.1258 167.042 56.3657C167.447 56.6056 167.76 56.953 167.982 57.4077C168.208 57.8589 168.32 58.4049 168.32 59.0459ZM163.841 59.0459C163.841 59.5186 163.903 59.9285 164.029 60.2759C164.154 60.6232 164.347 60.8918 164.609 61.0815C164.87 61.2713 165.207 61.3662 165.619 61.3662C166.027 61.3662 166.362 61.2713 166.623 61.0815C166.888 60.8918 167.083 60.6232 167.208 60.2759C167.334 59.9285 167.396 59.5186 167.396 59.0459C167.396 58.5768 167.334 58.1722 167.208 57.832C167.083 57.4883 166.89 57.2233 166.628 57.0371C166.367 56.8509 166.029 56.7578 165.613 56.7578C165.001 56.7578 164.552 56.9601 164.265 57.3647C163.982 57.7694 163.841 58.3298 163.841 59.0459ZM174.723 56.1133V62H173.992L173.863 61.1729H173.815C173.693 61.377 173.536 61.5488 173.342 61.6885C173.149 61.8281 172.931 61.932 172.687 62C172.447 62.0716 172.191 62.1074 171.919 62.1074C171.453 62.1074 171.063 62.0322 170.748 61.8818C170.433 61.7314 170.195 61.4987 170.034 61.1836C169.876 60.8685 169.797 60.4639 169.797 59.9697V56.1133H170.7V59.9053C170.7 60.3958 170.811 60.7629 171.033 61.0063C171.255 61.2463 171.593 61.3662 172.048 61.3662C172.485 61.3662 172.832 61.2839 173.09 61.1191C173.351 60.9544 173.539 60.7127 173.654 60.394C173.768 60.0718 173.826 59.6779 173.826 59.2124V56.1133H174.723ZM179.283 56.0059C179.401 56.0059 179.524 56.013 179.653 56.0273C179.782 56.0381 179.897 56.0542 179.997 56.0757L179.884 56.9028C179.788 56.8778 179.68 56.8581 179.562 56.8438C179.444 56.8294 179.333 56.8223 179.229 56.8223C178.993 56.8223 178.769 56.8706 178.558 56.9673C178.35 57.0604 178.167 57.1965 178.01 57.3755C177.852 57.5509 177.729 57.764 177.639 58.0146C177.55 58.2617 177.505 58.5374 177.505 58.8418V62H176.608V56.1133H177.349L177.446 57.1982H177.483C177.605 56.9798 177.752 56.7811 177.924 56.6021C178.096 56.4194 178.294 56.2744 178.52 56.167C178.749 56.0596 179.003 56.0059 179.283 56.0059ZM184.917 60.3887C184.917 60.7646 184.822 61.0815 184.632 61.3394C184.446 61.5936 184.178 61.7852 183.827 61.9141C183.479 62.043 183.064 62.1074 182.581 62.1074C182.169 62.1074 181.812 62.0752 181.512 62.0107C181.211 61.9463 180.948 61.855 180.722 61.7368V60.915C180.962 61.0332 181.249 61.1406 181.582 61.2373C181.915 61.334 182.255 61.3823 182.602 61.3823C183.111 61.3823 183.479 61.3 183.708 61.1353C183.938 60.9705 184.052 60.7467 184.052 60.4639C184.052 60.3027 184.006 60.1613 183.913 60.0396C183.823 59.9142 183.671 59.7943 183.456 59.6797C183.241 59.5615 182.944 59.4326 182.564 59.293C182.188 59.1497 181.863 59.0083 181.587 58.8687C181.315 58.7254 181.104 58.5518 180.953 58.3477C180.806 58.1436 180.733 57.8786 180.733 57.5527C180.733 57.055 180.933 56.6737 181.334 56.4087C181.739 56.1401 182.269 56.0059 182.924 56.0059C183.279 56.0059 183.61 56.0417 183.918 56.1133C184.229 56.1813 184.52 56.2744 184.788 56.3926L184.487 57.1069C184.244 57.0031 183.984 56.9154 183.708 56.8438C183.433 56.7721 183.152 56.7363 182.865 56.7363C182.453 56.7363 182.137 56.8044 181.915 56.9404C181.696 57.0765 181.587 57.2627 181.587 57.499C181.587 57.6816 181.637 57.832 181.737 57.9502C181.841 58.0684 182.006 58.1794 182.231 58.2832C182.457 58.387 182.754 58.5088 183.123 58.6484C183.492 58.7845 183.811 58.9259 184.079 59.0728C184.348 59.216 184.554 59.3914 184.697 59.5991C184.844 59.8032 184.917 60.0664 184.917 60.3887ZM188.618 56.0059C189.119 56.0059 189.549 56.1169 189.907 56.3389C190.265 56.5609 190.539 56.8724 190.729 57.2734C190.918 57.6709 191.013 58.1364 191.013 58.6699V59.2231H186.947C186.958 59.9142 187.13 60.4406 187.463 60.8022C187.796 61.1639 188.265 61.3447 188.87 61.3447C189.243 61.3447 189.572 61.3107 189.858 61.2427C190.145 61.1746 190.442 61.0744 190.75 60.9419V61.7261C190.453 61.8586 190.157 61.9552 189.864 62.0161C189.574 62.077 189.23 62.1074 188.833 62.1074C188.267 62.1074 187.773 61.9928 187.35 61.7637C186.931 61.5309 186.605 61.1908 186.373 60.7432C186.14 60.2956 186.023 59.7477 186.023 59.0996C186.023 58.4658 186.129 57.918 186.34 57.4561C186.555 56.9906 186.856 56.6325 187.243 56.3818C187.633 56.1312 188.091 56.0059 188.618 56.0059ZM188.607 56.7363C188.131 56.7363 187.751 56.8921 187.468 57.2036C187.185 57.5151 187.017 57.9502 186.963 58.5088H190.079C190.075 58.1579 190.02 57.8499 189.912 57.585C189.808 57.3164 189.649 57.1087 189.434 56.9619C189.219 56.8115 188.944 56.7363 188.607 56.7363ZM196.336 60.3887C196.336 60.7646 196.241 61.0815 196.051 61.3394C195.865 61.5936 195.597 61.7852 195.246 61.9141C194.898 62.043 194.483 62.1074 194 62.1074C193.588 62.1074 193.231 62.0752 192.931 62.0107C192.63 61.9463 192.367 61.855 192.141 61.7368V60.915C192.381 61.0332 192.667 61.1406 193 61.2373C193.333 61.334 193.674 61.3823 194.021 61.3823C194.529 61.3823 194.898 61.3 195.127 61.1353C195.357 60.9705 195.471 60.7467 195.471 60.4639C195.471 60.3027 195.425 60.1613 195.332 60.0396C195.242 59.9142 195.09 59.7943 194.875 59.6797C194.66 59.5615 194.363 59.4326 193.983 59.293C193.607 59.1497 193.282 59.0083 193.006 58.8687C192.734 58.7254 192.522 58.5518 192.372 58.3477C192.225 58.1436 192.152 57.8786 192.152 57.5527C192.152 57.055 192.352 56.6737 192.753 56.4087C193.158 56.1401 193.688 56.0059 194.343 56.0059C194.698 56.0059 195.029 56.0417 195.337 56.1133C195.648 56.1813 195.938 56.2744 196.207 56.3926L195.906 57.1069C195.663 57.0031 195.403 56.9154 195.127 56.8438C194.852 56.7721 194.571 56.7363 194.284 56.7363C193.872 56.7363 193.556 56.8044 193.333 56.9404C193.115 57.0765 193.006 57.2627 193.006 57.499C193.006 57.6816 193.056 57.832 193.156 57.9502C193.26 58.0684 193.425 58.1794 193.65 58.2832C193.876 58.387 194.173 58.5088 194.542 58.6484C194.911 58.7845 195.229 58.9259 195.498 59.0728C195.767 59.216 195.972 59.3914 196.116 59.5991C196.263 59.8032 196.336 60.0664 196.336 60.3887ZM206.063 58.0791C206.063 58.4193 206.024 58.7523 205.945 59.0781C205.87 59.4004 205.753 59.6922 205.596 59.9536C205.438 60.2114 205.241 60.4173 205.005 60.5713C204.772 60.7253 204.496 60.8022 204.178 60.8022C203.845 60.8022 203.58 60.7056 203.383 60.5122C203.186 60.3188 203.068 60.0897 203.028 59.8247H202.98C202.844 60.1076 202.643 60.3421 202.378 60.5283C202.117 60.7109 201.795 60.8022 201.412 60.8022C200.853 60.8022 200.422 60.6178 200.117 60.249C199.816 59.8766 199.666 59.3825 199.666 58.7666C199.666 58.2868 199.761 57.8625 199.951 57.4937C200.144 57.1213 200.414 56.8294 200.762 56.6182C201.113 56.4033 201.526 56.2959 202.002 56.2959C202.321 56.2959 202.631 56.3228 202.932 56.3765C203.232 56.4302 203.472 56.4893 203.651 56.5537L203.544 58.7183C203.54 58.8507 203.537 58.9528 203.533 59.0244C203.53 59.0924 203.528 59.1462 203.528 59.1855C203.528 59.5723 203.596 59.8337 203.732 59.9697C203.872 60.1022 204.04 60.1685 204.237 60.1685C204.477 60.1685 204.677 60.0754 204.838 59.8892C205.003 59.6994 205.128 59.4469 205.214 59.1318C205.3 58.8132 205.343 58.4604 205.343 58.0737C205.343 57.3898 205.205 56.8062 204.93 56.3228C204.654 55.8394 204.273 55.4705 203.786 55.2163C203.302 54.9621 202.745 54.835 202.115 54.835C201.489 54.835 200.932 54.9334 200.445 55.1304C199.961 55.3273 199.551 55.6066 199.215 55.9683C198.882 56.3263 198.629 56.7524 198.458 57.2466C198.286 57.7407 198.2 58.2868 198.2 58.8848C198.2 59.6152 198.329 60.2365 198.586 60.7485C198.848 61.2606 199.229 61.6509 199.73 61.9194C200.235 62.1844 200.849 62.3169 201.573 62.3169C202.01 62.3169 202.43 62.2686 202.835 62.1719C203.24 62.0752 203.601 61.966 203.92 61.8442V62.5425C203.605 62.675 203.252 62.7824 202.862 62.8647C202.472 62.9507 202.042 62.9937 201.573 62.9937C200.71 62.9937 199.972 62.8307 199.36 62.5049C198.748 62.1826 198.278 61.7171 197.953 61.1084C197.627 60.4997 197.464 59.7692 197.464 58.917C197.464 58.2259 197.569 57.5903 197.781 57.0103C197.996 56.4302 198.304 55.9271 198.705 55.501C199.109 55.0749 199.598 54.7454 200.171 54.5127C200.747 54.2764 201.396 54.1582 202.115 54.1582C202.885 54.1582 203.565 54.3175 204.156 54.6362C204.751 54.9513 205.216 55.4025 205.553 55.9897C205.893 56.5734 206.063 57.2699 206.063 58.0791ZM200.466 58.7881C200.466 59.2643 200.561 59.6134 200.751 59.8354C200.941 60.0575 201.204 60.1685 201.541 60.1685C201.956 60.1685 202.26 60.0127 202.454 59.7012C202.651 59.3896 202.763 58.9779 202.792 58.4658L202.856 57.064C202.753 57.0317 202.625 57.0049 202.475 56.9834C202.328 56.9583 202.174 56.9458 202.013 56.9458C201.644 56.9458 201.345 57.0335 201.116 57.209C200.891 57.3844 200.726 57.6118 200.622 57.8911C200.518 58.1704 200.466 58.4694 200.466 58.7881ZM209.275 64.6426C208.501 64.6426 207.905 64.4976 207.486 64.2075C207.067 63.9211 206.858 63.5182 206.858 62.999C206.858 62.6302 206.974 62.3151 207.207 62.0537C207.443 61.7923 207.769 61.6187 208.185 61.5327C208.031 61.4611 207.898 61.3537 207.787 61.2104C207.68 61.0672 207.626 60.9025 207.626 60.7163C207.626 60.5015 207.685 60.3135 207.803 60.1523C207.925 59.9876 208.109 59.8301 208.356 59.6797C208.049 59.5544 207.798 59.3431 207.604 59.0459C207.415 58.7451 207.32 58.396 207.32 57.9985C207.32 57.576 207.408 57.2161 207.583 56.9189C207.758 56.6182 208.013 56.389 208.346 56.2314C208.679 56.0739 209.082 55.9951 209.554 55.9951C209.658 55.9951 209.762 56.0005 209.866 56.0112C209.973 56.0184 210.075 56.0309 210.172 56.0488C210.269 56.0632 210.353 56.0811 210.424 56.1025H212.444V56.6772L211.359 56.8115C211.466 56.9512 211.556 57.1195 211.627 57.3164C211.699 57.5133 211.735 57.7318 211.735 57.9717C211.735 58.5589 211.536 59.0262 211.139 59.3735C210.741 59.7173 210.195 59.8892 209.5 59.8892C209.336 59.8892 209.167 59.8748 208.996 59.8462C208.82 59.9429 208.686 60.0503 208.593 60.1685C208.503 60.2866 208.458 60.4227 208.458 60.5767C208.458 60.6912 208.493 60.7826 208.561 60.8506C208.632 60.9186 208.734 60.9688 208.867 61.001C208.999 61.0296 209.159 61.0439 209.345 61.0439H210.381C211.022 61.0439 211.513 61.1782 211.853 61.4468C212.197 61.7153 212.369 62.1074 212.369 62.623C212.369 63.2747 212.104 63.7743 211.574 64.1216C211.044 64.4689 210.278 64.6426 209.275 64.6426ZM209.302 63.9443C209.789 63.9443 210.192 63.8942 210.51 63.7939C210.833 63.6973 211.072 63.5558 211.23 63.3696C211.391 63.187 211.472 62.9686 211.472 62.7144C211.472 62.478 211.418 62.299 211.311 62.1772C211.203 62.0591 211.046 61.9803 210.838 61.9409C210.63 61.8979 210.376 61.8765 210.075 61.8765H209.055C208.79 61.8765 208.559 61.9176 208.362 62C208.165 62.0824 208.013 62.2041 207.905 62.3652C207.801 62.5264 207.75 62.7269 207.75 62.9668C207.75 63.2855 207.884 63.5272 208.152 63.6919C208.421 63.8602 208.804 63.9443 209.302 63.9443ZM209.533 59.2393C209.959 59.2393 210.279 59.1318 210.494 58.917C210.709 58.7021 210.816 58.3888 210.816 57.9771C210.816 57.5366 210.707 57.2072 210.489 56.9888C210.27 56.7668 209.948 56.6558 209.522 56.6558C209.114 56.6558 208.799 56.7703 208.577 56.9995C208.358 57.2251 208.249 57.5563 208.249 57.9932C208.249 58.3942 208.36 58.7021 208.582 58.917C208.804 59.1318 209.121 59.2393 209.533 59.2393ZM219.996 56.0059C220.644 56.0059 221.132 56.1759 221.462 56.5161C221.791 56.8527 221.956 57.3952 221.956 58.1436V62H221.075V58.1865C221.075 57.7103 220.971 57.354 220.764 57.1177C220.56 56.8778 220.255 56.7578 219.851 56.7578C219.281 56.7578 218.868 56.9225 218.61 57.252C218.352 57.5814 218.223 58.0666 218.223 58.7075V62H217.337V58.1865C217.337 57.8678 217.29 57.6029 217.197 57.3916C217.108 57.1803 216.972 57.0228 216.789 56.9189C216.61 56.8115 216.383 56.7578 216.107 56.7578C215.717 56.7578 215.403 56.8384 215.167 56.9995C214.931 57.1606 214.759 57.4006 214.651 57.7192C214.548 58.0343 214.496 58.4229 214.496 58.8848V62H213.604V56.1133H214.324L214.458 56.9458H214.506C214.625 56.7417 214.773 56.5698 214.952 56.4302C215.131 56.2905 215.332 56.1849 215.554 56.1133C215.776 56.0417 216.012 56.0059 216.263 56.0059C216.71 56.0059 217.084 56.09 217.385 56.2583C217.69 56.423 217.91 56.6755 218.046 57.0156H218.094C218.288 56.6755 218.553 56.423 218.889 56.2583C219.226 56.09 219.595 56.0059 219.996 56.0059ZM225.99 56.0166C226.692 56.0166 227.213 56.1742 227.553 56.4893C227.893 56.8044 228.063 57.3075 228.063 57.9985V62H227.413L227.241 61.1299H227.198C227.034 61.3447 226.862 61.5256 226.683 61.6724C226.504 61.8156 226.296 61.9248 226.06 62C225.827 62.0716 225.54 62.1074 225.2 62.1074C224.842 62.1074 224.523 62.0448 224.244 61.9194C223.968 61.7941 223.75 61.6043 223.589 61.3501C223.431 61.0959 223.353 60.7736 223.353 60.3833C223.353 59.7961 223.585 59.3449 224.051 59.0298C224.516 58.7147 225.225 58.5428 226.178 58.5142L227.193 58.4712V58.1113C227.193 57.6029 227.084 57.2466 226.865 57.0425C226.647 56.8384 226.339 56.7363 225.941 56.7363C225.633 56.7363 225.34 56.7811 225.061 56.8706C224.781 56.9601 224.516 57.0658 224.266 57.1875L223.992 56.5107C224.257 56.3747 224.561 56.2583 224.905 56.1616C225.249 56.0649 225.61 56.0166 225.99 56.0166ZM227.182 59.0996L226.285 59.1372C225.551 59.1659 225.034 59.2858 224.733 59.4971C224.432 59.7083 224.282 60.0073 224.282 60.394C224.282 60.7306 224.384 60.9795 224.588 61.1406C224.792 61.3018 225.062 61.3823 225.399 61.3823C225.922 61.3823 226.35 61.2373 226.683 60.9473C227.016 60.6572 227.182 60.2222 227.182 59.6421V59.0996ZM230.792 56.1133V62H229.9V56.1133H230.792ZM230.356 53.9111C230.503 53.9111 230.629 53.9595 230.732 54.0562C230.84 54.1493 230.894 54.2961 230.894 54.4966C230.894 54.6935 230.84 54.8403 230.732 54.937C230.629 55.0337 230.503 55.082 230.356 55.082C230.202 55.082 230.074 55.0337 229.97 54.937C229.869 54.8403 229.819 54.6935 229.819 54.4966C229.819 54.2961 229.869 54.1493 229.97 54.0562C230.074 53.9595 230.202 53.9111 230.356 53.9111ZM233.579 62H232.682V53.6426H233.579V62ZM235.33 61.4414C235.33 61.1908 235.391 61.0135 235.513 60.9097C235.634 60.8022 235.783 60.7485 235.958 60.7485C236.141 60.7485 236.295 60.8022 236.42 60.9097C236.546 61.0135 236.608 61.1908 236.608 61.4414C236.608 61.6885 236.546 61.8693 236.42 61.9839C236.295 62.0949 236.141 62.1504 235.958 62.1504C235.783 62.1504 235.634 62.0949 235.513 61.9839C235.391 61.8693 235.33 61.6885 235.33 61.4414ZM240.712 62.1074C240.182 62.1074 239.715 61.9982 239.31 61.7798C238.905 61.5614 238.59 61.2284 238.365 60.7808C238.139 60.3332 238.026 59.7692 238.026 59.0889C238.026 58.3763 238.145 57.7944 238.381 57.3433C238.621 56.8885 238.95 56.5519 239.369 56.3335C239.788 56.1151 240.264 56.0059 240.798 56.0059C241.091 56.0059 241.374 56.0363 241.646 56.0972C241.922 56.1545 242.148 56.2279 242.323 56.3174L242.055 57.064C241.876 56.9924 241.668 56.9279 241.432 56.8706C241.199 56.8133 240.98 56.7847 240.776 56.7847C240.368 56.7847 240.028 56.8724 239.756 57.0479C239.487 57.2233 239.285 57.4811 239.149 57.8213C239.016 58.1615 238.95 58.5804 238.95 59.0781C238.95 59.5544 239.015 59.9608 239.144 60.2974C239.276 60.634 239.471 60.8918 239.729 61.0708C239.99 61.2463 240.316 61.334 240.707 61.334C241.018 61.334 241.299 61.3018 241.55 61.2373C241.8 61.1693 242.028 61.0905 242.232 61.001V61.7959C242.035 61.8962 241.815 61.9731 241.571 62.0269C241.331 62.0806 241.045 62.1074 240.712 62.1074ZM248.704 59.0459C248.704 59.5293 248.641 59.9608 248.516 60.3403C248.391 60.7199 248.21 61.0404 247.974 61.3018C247.737 61.5632 247.451 61.7637 247.114 61.9033C246.781 62.0394 246.403 62.1074 245.981 62.1074C245.587 62.1074 245.225 62.0394 244.896 61.9033C244.57 61.7637 244.287 61.5632 244.047 61.3018C243.811 61.0404 243.627 60.7199 243.494 60.3403C243.365 59.9608 243.301 59.5293 243.301 59.0459C243.301 58.4014 243.41 57.8535 243.628 57.4023C243.847 56.9476 244.158 56.6021 244.563 56.3657C244.971 56.1258 245.456 56.0059 246.019 56.0059C246.556 56.0059 247.025 56.1258 247.426 56.3657C247.83 56.6056 248.144 56.953 248.366 57.4077C248.591 57.8589 248.704 58.4049 248.704 59.0459ZM244.225 59.0459C244.225 59.5186 244.287 59.9285 244.413 60.2759C244.538 60.6232 244.731 60.8918 244.993 61.0815C245.254 61.2713 245.591 61.3662 246.002 61.3662C246.411 61.3662 246.745 61.2713 247.007 61.0815C247.272 60.8918 247.467 60.6232 247.592 60.2759C247.718 59.9285 247.78 59.5186 247.78 59.0459C247.78 58.5768 247.718 58.1722 247.592 57.832C247.467 57.4883 247.274 57.2233 247.012 57.0371C246.751 56.8509 246.412 56.7578 245.997 56.7578C245.385 56.7578 244.935 56.9601 244.649 57.3647C244.366 57.7694 244.225 58.3298 244.225 59.0459ZM256.637 56.0059C257.285 56.0059 257.774 56.1759 258.104 56.5161C258.433 56.8527 258.598 57.3952 258.598 58.1436V62H257.717V58.1865C257.717 57.7103 257.613 57.354 257.405 57.1177C257.201 56.8778 256.897 56.7578 256.492 56.7578C255.923 56.7578 255.509 56.9225 255.251 57.252C254.994 57.5814 254.865 58.0666 254.865 58.7075V62H253.979V58.1865C253.979 57.8678 253.932 57.6029 253.839 57.3916C253.749 57.1803 253.613 57.0228 253.431 56.9189C253.252 56.8115 253.024 56.7578 252.749 56.7578C252.358 56.7578 252.045 56.8384 251.809 56.9995C251.572 57.1606 251.4 57.4006 251.293 57.7192C251.189 58.0343 251.137 58.4229 251.137 58.8848V62H250.246V56.1133H250.965L251.1 56.9458H251.148C251.266 56.7417 251.415 56.5698 251.594 56.4302C251.773 56.2905 251.973 56.1849 252.195 56.1133C252.417 56.0417 252.654 56.0059 252.904 56.0059C253.352 56.0059 253.726 56.09 254.027 56.2583C254.331 56.423 254.551 56.6755 254.688 57.0156H254.736C254.929 56.6755 255.194 56.423 255.531 56.2583C255.867 56.09 256.236 56.0059 256.637 56.0059Z" fill="#40514E" fill-opacity="0.7"/>
<path d="M100 62.6714H259.489V62.9399H100V62.6714Z" fill="#40514E" fill-opacity="0.7"/>
<a href="mailto:online2020courses@gmail.com">
<rect fill="black" fill-opacity="0" y="0.0100098" width="159.489" height="14.98"/>
</a>
<path d="M101.067 80.464C101.606 80.981 102.288 81.696 102.596 82.147L103.19 81.586C102.86 81.146 102.167 80.464 101.617 79.98L101.067 80.464ZM101.925 89.44C102.068 89.231 102.343 88.989 104.158 87.449C104.07 87.306 103.927 86.998 103.85 86.778L101.969 88.34L101.771 88.681L101.925 89.44ZM100.473 83.203V83.962H102.519V83.203H100.473ZM103.718 85.469V86.228H110.505V85.469H103.718ZM107.766 85.832L107.194 86.074C107.876 87.306 109.075 88.659 110.12 89.352C110.252 89.143 110.505 88.857 110.692 88.703C109.647 88.131 108.415 86.932 107.766 85.832ZM105.071 82.708H109.031V83.852H105.071V82.708ZM105.071 80.915H109.031V82.048H105.071V80.915ZM104.312 80.233V84.534H109.812V80.233H104.312ZM106.468 85.832C105.819 87.042 104.543 88.263 103.344 88.824C103.52 88.978 103.762 89.253 103.883 89.451C105.093 88.78 106.358 87.427 107.051 86.052L106.468 85.832ZM106.743 80.574V84.193H106.721V89.88H107.535V84.193H107.502V80.574H106.743ZM101.925 89.44C101.925 89.11 102.805 88.252 102.805 88.252V83.203H102.013V87.702C102.013 88.274 101.628 88.703 101.419 88.89C101.573 89 101.826 89.286 101.925 89.44ZM118.084 84.952V89.352H118.898V84.952H118.084ZM115.664 84.655V85.381H121.351V84.655H115.664ZM115.191 88.857V89.594H121.593V88.857H115.191ZM115.928 86.701V87.416H121.098V86.701H115.928ZM116.852 80.937H120.163V82.972H116.852V80.937ZM116.082 80.222V83.687H120.966V80.222H116.082ZM113.332 80.673V89.858H114.135V80.673H113.332ZM111.528 82.862V83.643H115.521V82.862H111.528ZM113.376 83.159C112.98 84.523 112.1 86.239 111.308 87.119C111.451 87.306 111.649 87.647 111.726 87.878C112.573 86.855 113.453 84.93 113.893 83.379L113.376 83.159ZM114.96 79.925C114.157 80.299 112.705 80.607 111.462 80.816C111.561 81.003 111.671 81.267 111.715 81.454C112.991 81.278 114.531 80.97 115.543 80.563L114.96 79.925ZM114.102 84.281L113.717 84.611C114.058 84.996 114.883 86.041 115.147 86.492L115.631 85.843C115.411 85.568 114.377 84.523 114.102 84.281ZM127.115 80.354C128.028 80.838 129.128 81.608 129.634 82.158L130.217 81.465C129.678 80.926 128.556 80.2 127.654 79.738L127.115 80.354ZM126.114 85.293V86.085H131.933V85.293H126.114ZM125.333 88.758V89.55H132.571V88.758H125.333ZM125.707 82.136V82.928H132.34V82.136H125.707ZM128.534 82.422V89.121H129.381V82.422H128.534ZM123.056 80.453C123.793 80.772 124.684 81.289 125.124 81.696L125.608 81.003C125.157 80.618 124.233 80.123 123.507 79.848L123.056 80.453ZM122.418 83.456C123.166 83.731 124.101 84.193 124.563 84.556L125.003 83.852C124.53 83.5 123.584 83.071 122.847 82.829L122.418 83.456ZM122.825 89.176L123.518 89.737C124.167 88.714 124.937 87.339 125.52 86.173L124.926 85.634C124.288 86.888 123.419 88.34 122.825 89.176ZM135.112 80.486V81.256H137.466V80.486H135.112ZM133.451 84.138V84.93H143.538V84.138H133.451ZM134.683 80.486V83.885C134.683 85.546 134.573 87.779 133.44 89.374C133.605 89.473 133.924 89.781 134.045 89.946C135.288 88.252 135.475 85.678 135.475 83.885V80.486H134.683ZM137.037 80.486V88.846C137.037 89 136.971 89.055 136.817 89.055C136.663 89.066 136.157 89.066 135.607 89.055C135.717 89.253 135.838 89.594 135.871 89.803C136.641 89.803 137.136 89.792 137.422 89.66C137.73 89.528 137.829 89.286 137.829 88.846V80.486H137.037ZM139.435 80.486V81.256H141.866V80.486H139.435ZM138.984 80.486V83.896C138.984 85.546 138.885 87.768 137.862 89.341C138.027 89.451 138.368 89.748 138.489 89.913C139.622 88.219 139.776 85.667 139.776 83.896V80.486H138.984ZM141.536 80.486V88.879C141.536 89.044 141.481 89.099 141.316 89.11C141.162 89.121 140.634 89.121 140.062 89.099C140.172 89.308 140.293 89.671 140.337 89.88C141.129 89.88 141.635 89.869 141.943 89.726C142.24 89.594 142.35 89.352 142.35 88.879V80.486H141.536ZM147.298 86.4434V85.6484H149.962V86.4434H147.298ZM154.151 82.411V83.236H162.643V82.411H154.151ZM162.302 82.411V82.587C162.159 86.811 161.983 88.439 161.631 88.791C161.499 88.923 161.378 88.956 161.147 88.956C160.872 88.956 160.179 88.956 159.442 88.879C159.596 89.132 159.706 89.495 159.728 89.737C160.399 89.781 161.103 89.792 161.488 89.759C161.884 89.726 162.148 89.627 162.39 89.319C162.83 88.813 162.984 87.251 163.149 82.84C163.16 82.719 163.16 82.411 163.16 82.411H162.302ZM157.77 79.782V81.091C157.77 83.368 157.539 86.734 153.854 89.121C154.063 89.264 154.371 89.539 154.503 89.737C158.342 87.185 158.606 83.555 158.606 81.091V79.782H157.77ZM155.031 80.376C155.471 80.893 155.977 81.608 156.186 82.048L156.934 81.696C156.703 81.245 156.186 80.552 155.746 80.068L155.031 80.376ZM158.738 84.93C159.299 85.59 159.959 86.514 160.234 87.097L160.96 86.712C160.674 86.129 160.003 85.238 159.42 84.589L158.738 84.93ZM175.002 85.063C175.002 85.6681 174.925 86.2196 174.771 86.7173C174.617 87.2114 174.388 87.6375 174.083 87.9956C173.783 88.3501 173.409 88.624 172.961 88.8174C172.513 89.0107 171.994 89.1074 171.403 89.1074C170.795 89.1074 170.263 89.0107 169.808 88.8174C169.357 88.624 168.981 88.3483 168.68 87.9902C168.383 87.6322 168.159 87.2043 168.009 86.7065C167.862 86.2088 167.789 85.6574 167.789 85.0522C167.789 84.2502 167.921 83.5465 168.186 82.9414C168.451 82.3363 168.852 81.8654 169.389 81.5288C169.93 81.1922 170.607 81.0239 171.419 81.0239C172.196 81.0239 172.85 81.1904 173.38 81.5234C173.913 81.8564 174.316 82.3255 174.588 82.9307C174.864 83.5322 175.002 84.243 175.002 85.063ZM168.75 85.063C168.75 85.729 168.845 86.3055 169.035 86.7925C169.224 87.2795 169.514 87.6554 169.905 87.9204C170.299 88.1854 170.798 88.3179 171.403 88.3179C172.012 88.3179 172.51 88.1854 172.896 87.9204C173.287 87.6554 173.575 87.2795 173.761 86.7925C173.947 86.3055 174.041 85.729 174.041 85.063C174.041 84.0496 173.827 83.2583 173.401 82.689C172.979 82.116 172.318 81.8296 171.419 81.8296C170.811 81.8296 170.309 81.9603 169.916 82.2217C169.522 82.4831 169.228 82.8555 169.035 83.3389C168.845 83.8187 168.75 84.3934 168.75 85.063ZM177.516 89H176.619V80.6426H177.516V89ZM180.292 83.1133V89H179.401V83.1133H180.292ZM179.857 80.9111C180.004 80.9111 180.13 80.9595 180.233 81.0562C180.341 81.1493 180.395 81.2961 180.395 81.4966C180.395 81.6935 180.341 81.8403 180.233 81.937C180.13 82.0337 180.004 82.082 179.857 82.082C179.703 82.082 179.575 82.0337 179.471 81.937C179.37 81.8403 179.32 81.6935 179.32 81.4966C179.32 81.2961 179.37 81.1493 179.471 81.0562C179.575 80.9595 179.703 80.9111 179.857 80.9111ZM183.478 89L181.243 83.1133H182.199L183.494 86.6743C183.583 86.9178 183.674 87.1864 183.768 87.48C183.861 87.7736 183.925 88.0099 183.961 88.189H183.999C184.042 88.0099 184.113 87.7736 184.213 87.48C184.314 87.1828 184.405 86.9142 184.487 86.6743L185.782 83.1133H186.738L184.498 89H183.478ZM188.575 83.1133V89H187.683V83.1133H188.575ZM188.14 80.9111C188.286 80.9111 188.412 80.9595 188.516 81.0562C188.623 81.1493 188.677 81.2961 188.677 81.4966C188.677 81.6935 188.623 81.8403 188.516 81.937C188.412 82.0337 188.286 82.082 188.14 82.082C187.986 82.082 187.857 82.0337 187.753 81.937C187.653 81.8403 187.603 81.6935 187.603 81.4966C187.603 81.2961 187.653 81.1493 187.753 81.0562C187.857 80.9595 187.986 80.9111 188.14 80.9111ZM192.667 83.0166C193.369 83.0166 193.89 83.1742 194.23 83.4893C194.571 83.8044 194.741 84.3075 194.741 84.9985V89H194.091L193.919 88.1299H193.876C193.711 88.3447 193.539 88.5256 193.36 88.6724C193.181 88.8156 192.974 88.9248 192.737 89C192.505 89.0716 192.218 89.1074 191.878 89.1074C191.52 89.1074 191.201 89.0448 190.922 88.9194C190.646 88.7941 190.428 88.6043 190.267 88.3501C190.109 88.0959 190.03 87.7736 190.03 87.3833C190.03 86.7961 190.263 86.3449 190.729 86.0298C191.194 85.7147 191.903 85.5428 192.855 85.5142L193.871 85.4712V85.1113C193.871 84.6029 193.761 84.2466 193.543 84.0425C193.325 83.8384 193.017 83.7363 192.619 83.7363C192.311 83.7363 192.018 83.7811 191.738 83.8706C191.459 83.9601 191.194 84.0658 190.943 84.1875L190.669 83.5107C190.934 83.3747 191.239 83.2583 191.583 83.1616C191.926 83.0649 192.288 83.0166 192.667 83.0166ZM193.86 86.0996L192.963 86.1372C192.229 86.1659 191.711 86.2858 191.411 86.4971C191.11 86.7083 190.959 87.0073 190.959 87.394C190.959 87.7306 191.062 87.9795 191.266 88.1406C191.47 88.3018 191.74 88.3823 192.077 88.3823C192.599 88.3823 193.027 88.2373 193.36 87.9473C193.693 87.6572 193.86 87.2222 193.86 86.6421V86.0996ZM204 86.9106C204 87.3761 203.884 87.7736 203.651 88.103C203.422 88.4289 203.1 88.6777 202.685 88.8496C202.269 89.0215 201.78 89.1074 201.218 89.1074C200.921 89.1074 200.64 89.0931 200.375 89.0645C200.11 89.0358 199.867 88.9946 199.645 88.9409C199.423 88.8872 199.227 88.821 199.059 88.7422V87.8667C199.328 87.9777 199.655 88.0815 200.042 88.1782C200.429 88.2713 200.833 88.3179 201.256 88.3179C201.65 88.3179 201.983 88.266 202.255 88.1621C202.527 88.0547 202.733 87.9025 202.873 87.7056C203.016 87.505 203.087 87.2651 203.087 86.9858C203.087 86.7173 203.028 86.4935 202.91 86.3145C202.792 86.1318 202.595 85.9671 202.319 85.8203C202.047 85.6699 201.675 85.5106 201.202 85.3423C200.869 85.2241 200.576 85.0952 200.321 84.9556C200.067 84.8123 199.854 84.6512 199.682 84.4722C199.51 84.2931 199.38 84.0854 199.29 83.8491C199.204 83.6128 199.161 83.3424 199.161 83.0381C199.161 82.6191 199.267 82.2611 199.478 81.9639C199.693 81.6631 199.988 81.4339 200.364 81.2764C200.744 81.1152 201.179 81.0347 201.669 81.0347C202.088 81.0347 202.475 81.0741 202.83 81.1528C203.188 81.2316 203.515 81.3372 203.812 81.4697L203.528 82.2539C203.245 82.1357 202.944 82.0373 202.625 81.9585C202.31 81.8797 201.985 81.8403 201.648 81.8403C201.311 81.8403 201.027 81.8905 200.794 81.9907C200.565 82.0874 200.389 82.2253 200.268 82.4043C200.146 82.5833 200.085 82.7964 200.085 83.0435C200.085 83.3192 200.142 83.5483 200.257 83.731C200.375 83.9136 200.561 84.0765 200.815 84.2197C201.073 84.3594 201.413 84.5062 201.836 84.6602C202.298 84.8285 202.69 85.0075 203.012 85.1973C203.334 85.3835 203.58 85.6126 203.748 85.8848C203.916 86.1533 204 86.4953 204 86.9106ZM206.364 83.1133V89H205.472V83.1133H206.364ZM205.929 80.9111C206.076 80.9111 206.201 80.9595 206.305 81.0562C206.412 81.1493 206.466 81.2961 206.466 81.4966C206.466 81.6935 206.412 81.8403 206.305 81.937C206.201 82.0337 206.076 82.082 205.929 82.082C205.775 82.082 205.646 82.0337 205.542 81.937C205.442 81.8403 205.392 81.6935 205.392 81.4966C205.392 81.2961 205.442 81.1493 205.542 81.0562C205.646 80.9595 205.775 80.9111 205.929 80.9111ZM214.646 83.0059C215.294 83.0059 215.783 83.1759 216.112 83.5161C216.442 83.8527 216.606 84.3952 216.606 85.1436V89H215.726V85.1865C215.726 84.7103 215.622 84.354 215.414 84.1177C215.21 83.8778 214.906 83.7578 214.501 83.7578C213.932 83.7578 213.518 83.9225 213.26 84.252C213.002 84.5814 212.874 85.0666 212.874 85.7075V89H211.987V85.1865C211.987 84.8678 211.941 84.6029 211.848 84.3916C211.758 84.1803 211.622 84.0228 211.439 83.9189C211.26 83.8115 211.033 83.7578 210.757 83.7578C210.367 83.7578 210.054 83.8384 209.817 83.9995C209.581 84.1606 209.409 84.4006 209.302 84.7192C209.198 85.0343 209.146 85.4229 209.146 85.8848V89H208.254V83.1133H208.974L209.108 83.9458H209.157C209.275 83.7417 209.424 83.5698 209.603 83.4302C209.782 83.2905 209.982 83.1849 210.204 83.1133C210.426 83.0417 210.662 83.0059 210.913 83.0059C211.361 83.0059 211.735 83.09 212.036 83.2583C212.34 83.423 212.56 83.6755 212.696 84.0156H212.745C212.938 83.6755 213.203 83.423 213.54 83.2583C213.876 83.09 214.245 83.0059 214.646 83.0059ZM222.246 87.3887C222.246 87.7646 222.151 88.0815 221.961 88.3394C221.775 88.5936 221.507 88.7852 221.156 88.9141C220.808 89.043 220.393 89.1074 219.91 89.1074C219.498 89.1074 219.142 89.0752 218.841 89.0107C218.54 88.9463 218.277 88.855 218.051 88.7368V87.915C218.291 88.0332 218.578 88.1406 218.911 88.2373C219.244 88.334 219.584 88.3823 219.931 88.3823C220.44 88.3823 220.808 88.3 221.038 88.1353C221.267 87.9705 221.381 87.7467 221.381 87.4639C221.381 87.3027 221.335 87.1613 221.242 87.0396C221.152 86.9142 221 86.7943 220.785 86.6797C220.57 86.5615 220.273 86.4326 219.894 86.293C219.518 86.1497 219.192 86.0083 218.916 85.8687C218.644 85.7254 218.433 85.5518 218.282 85.3477C218.135 85.1436 218.062 84.8786 218.062 84.5527C218.062 84.055 218.263 83.6737 218.664 83.4087C219.068 83.1401 219.598 83.0059 220.253 83.0059C220.608 83.0059 220.939 83.0417 221.247 83.1133C221.559 83.1813 221.849 83.2744 222.117 83.3926L221.816 84.1069C221.573 84.0031 221.313 83.9154 221.038 83.8438C220.762 83.7721 220.481 83.7363 220.194 83.7363C219.783 83.7363 219.466 83.8044 219.244 83.9404C219.025 84.0765 218.916 84.2627 218.916 84.499C218.916 84.6816 218.966 84.832 219.066 84.9502C219.17 85.0684 219.335 85.1794 219.561 85.2832C219.786 85.387 220.083 85.5088 220.452 85.6484C220.821 85.7845 221.14 85.9259 221.408 86.0728C221.677 86.216 221.883 86.3914 222.026 86.5991C222.173 86.8032 222.246 87.0664 222.246 87.3887ZM230.713 80.354C231.626 80.838 232.726 81.608 233.232 82.158L233.815 81.465C233.276 80.926 232.154 80.2 231.252 79.738L230.713 80.354ZM229.712 85.293V86.085H235.531V85.293H229.712ZM228.931 88.758V89.55H236.169V88.758H228.931ZM229.305 82.136V82.928H235.938V82.136H229.305ZM232.132 82.422V89.121H232.979V82.422H232.132ZM226.654 80.453C227.391 80.772 228.282 81.289 228.722 81.696L229.206 81.003C228.755 80.618 227.831 80.123 227.105 79.848L226.654 80.453ZM226.016 83.456C226.764 83.731 227.699 84.193 228.161 84.556L228.601 83.852C228.128 83.5 227.182 83.071 226.445 82.829L226.016 83.456ZM226.423 89.176L227.116 89.737C227.765 88.714 228.535 87.339 229.118 86.173L228.524 85.634C227.886 86.888 227.017 88.34 226.423 89.176ZM238.71 80.486V81.256H241.064V80.486H238.71ZM237.049 84.138V84.93H247.136V84.138H237.049ZM238.281 80.486V83.885C238.281 85.546 238.171 87.779 237.038 89.374C237.203 89.473 237.522 89.781 237.643 89.946C238.886 88.252 239.073 85.678 239.073 83.885V80.486H238.281ZM240.635 80.486V88.846C240.635 89 240.569 89.055 240.415 89.055C240.261 89.066 239.755 89.066 239.205 89.055C239.315 89.253 239.436 89.594 239.469 89.803C240.239 89.803 240.734 89.792 241.02 89.66C241.328 89.528 241.427 89.286 241.427 88.846V80.486H240.635ZM243.033 80.486V81.256H245.464V80.486H243.033ZM242.582 80.486V83.896C242.582 85.546 242.483 87.768 241.46 89.341C241.625 89.451 241.966 89.748 242.087 89.913C243.22 88.219 243.374 85.667 243.374 83.896V80.486H242.582ZM245.134 80.486V88.879C245.134 89.044 245.079 89.099 244.914 89.11C244.76 89.121 244.232 89.121 243.66 89.099C243.77 89.308 243.891 89.671 243.935 89.88C244.727 89.88 245.233 89.869 245.541 89.726C245.838 89.594 245.948 89.352 245.948 88.879V80.486H245.134ZM250.975 84.391V85.172H258.048V84.391H250.975ZM251.536 81.564V82.356H257.531V81.564H251.536ZM254.055 79.771V84.952H254.902V79.771H254.055ZM250.986 88.538L251.107 89.374C252.669 89.275 254.968 89.121 257.157 88.956V88.208C254.88 88.34 252.482 88.472 250.986 88.538ZM255.419 86.657C256.244 87.658 257.124 89.033 257.465 89.902L258.235 89.473C257.872 88.582 256.959 87.273 256.123 86.294L255.419 86.657ZM253.318 84.908C252.977 86.085 252.328 87.735 251.789 88.758L252.515 89.011C253.065 88.01 253.725 86.437 254.209 85.161L253.318 84.908ZM248.599 80.453C249.369 80.75 250.293 81.267 250.755 81.663L251.228 80.97C250.755 80.585 249.809 80.112 249.061 79.837L248.599 80.453ZM248.016 83.489C248.786 83.753 249.732 84.215 250.205 84.567L250.656 83.874C250.161 83.522 249.193 83.093 248.445 82.851L248.016 83.489ZM248.401 89.209L249.116 89.748C249.732 88.725 250.458 87.35 251.008 86.184L250.392 85.667C249.787 86.91 248.962 88.362 248.401 89.209ZM262.503 80.167V80.904H268.762V80.167H262.503ZM262.118 84.358V85.117H269.125V84.358H262.118ZM263.031 86.019V89.88H263.812V86.756H267.574V89.847H268.388V86.019H263.031ZM263.416 88.725V89.451H267.904V88.725H263.416ZM264.802 80.453C264.571 81.806 264.153 83.676 263.823 84.787H264.681C264.956 83.731 265.374 81.916 265.638 80.541L264.802 80.453ZM262.888 82.136V82.862H267.453V82.136H262.888ZM267.266 82.136V82.235C267.222 82.818 267.112 83.907 267.002 84.699L267.783 84.754C267.882 83.984 267.992 82.983 268.047 82.147L267.475 82.092L267.343 82.136H267.266ZM259.665 80.574C260.259 81.091 260.985 81.817 261.337 82.29L261.887 81.707C261.546 81.256 260.787 80.552 260.204 80.068L259.665 80.574ZM259.082 83.214V84.006H261.051V83.214H259.082ZM260.644 89.55C260.798 89.352 261.095 89.132 262.932 87.856C262.855 87.691 262.745 87.372 262.701 87.152L260.754 88.45L260.512 88.791L260.644 89.55ZM260.644 89.55C260.644 89.253 261.392 88.736 261.392 88.736V83.214H260.611V88.01C260.611 88.461 260.38 88.703 260.215 88.813C260.358 88.989 260.567 89.352 260.644 89.55ZM270.665 80.464C271.204 80.981 271.886 81.696 272.194 82.147L272.788 81.586C272.458 81.146 271.765 80.464 271.215 79.98L270.665 80.464ZM271.523 89.44C271.666 89.231 271.941 88.989 273.756 87.449C273.668 87.306 273.525 86.998 273.448 86.778L271.567 88.34L271.369 88.681L271.523 89.44ZM270.071 83.203V83.962H272.117V83.203H270.071ZM273.316 85.469V86.228H280.103V85.469H273.316ZM277.364 85.832L276.792 86.074C277.474 87.306 278.673 88.659 279.718 89.352C279.85 89.143 280.103 88.857 280.29 88.703C279.245 88.131 278.013 86.932 277.364 85.832ZM274.669 82.708H278.629V83.852H274.669V82.708ZM274.669 80.915H278.629V82.048H274.669V80.915ZM273.91 80.233V84.534H279.41V80.233H273.91ZM276.066 85.832C275.417 87.042 274.141 88.263 272.942 88.824C273.118 88.978 273.36 89.253 273.481 89.451C274.691 88.78 275.956 87.427 276.649 86.052L276.066 85.832ZM276.341 80.574V84.193H276.319V89.88H277.133V84.193H277.1V80.574H276.341ZM271.523 89.44C271.523 89.11 272.403 88.252 272.403 88.252V83.203H271.611V87.702C271.611 88.274 271.226 88.703 271.017 88.89C271.171 89 271.424 89.286 271.523 89.44ZM287.682 84.952V89.352H288.496V84.952H287.682ZM285.262 84.655V85.381H290.949V84.655H285.262ZM284.789 88.857V89.594H291.191V88.857H284.789ZM285.526 86.701V87.416H290.696V86.701H285.526ZM286.45 80.937H289.761V82.972H286.45V80.937ZM285.68 80.222V83.687H290.564V80.222H285.68ZM282.93 80.673V89.858H283.733V80.673H282.93ZM281.126 82.862V83.643H285.119V82.862H281.126ZM282.974 83.159C282.578 84.523 281.698 86.239 280.906 87.119C281.049 87.306 281.247 87.647 281.324 87.878C282.171 86.855 283.051 84.93 283.491 83.379L282.974 83.159ZM284.558 79.925C283.755 80.299 282.303 80.607 281.06 80.816C281.159 81.003 281.269 81.267 281.313 81.454C282.589 81.278 284.129 80.97 285.141 80.563L284.558 79.925ZM283.7 84.281L283.315 84.611C283.656 84.996 284.481 86.041 284.745 86.492L285.229 85.843C285.009 85.568 283.975 84.523 283.7 84.281Z" fill="#40514E" fill-opacity="0.7"/>
<path d="M68.559 147H67.4515V139.918C67.4515 139.649 67.4515 139.419 67.4515 139.228C67.4561 139.032 67.4607 138.854 67.4652 138.694C67.4743 138.53 67.4857 138.364 67.4994 138.195C67.3581 138.341 67.226 138.466 67.1029 138.571C66.9799 138.672 66.8272 138.797 66.6449 138.947L65.5033 139.863L64.9086 139.091L67.6156 137.006H68.559V147ZM72.681 146.289C72.681 145.97 72.7585 145.744 72.9135 145.612C73.0684 145.476 73.2575 145.407 73.4808 145.407C73.7133 145.407 73.9092 145.476 74.0687 145.612C74.2282 145.744 74.308 145.97 74.308 146.289C74.308 146.604 74.2282 146.834 74.0687 146.979C73.9092 147.121 73.7133 147.191 73.4808 147.191C73.2575 147.191 73.0684 147.121 72.9135 146.979C72.7585 146.834 72.681 146.604 72.681 146.289ZM80.434 141.736L80.686 142.744C82.072 142.436 83.99 142.016 85.796 141.61L85.726 140.658C83.78 141.078 81.764 141.484 80.434 141.736ZM80.84 136.094V137.088H85.082V136.094H80.84ZM82.646 138.936V146.846C82.646 147.014 82.604 147.07 82.408 147.07C82.226 147.07 81.624 147.07 80.952 147.056C81.106 147.364 81.246 147.826 81.288 148.12C82.156 148.12 82.786 148.092 83.164 147.924C83.542 147.742 83.654 147.434 83.654 146.846V138.936H82.646ZM84.872 136.094V136.318C84.452 137.172 83.584 138.39 82.814 139.09C83.024 139.258 83.332 139.566 83.486 139.776C84.382 138.964 85.404 137.676 86.062 136.514L85.334 136.024L85.124 136.094H84.872ZM85.558 137.158V138.11H93.384V137.158H85.558ZM88.918 135.24V137.592H89.954V135.24H88.918ZM88.764 137.802C88.232 138.67 87.294 139.86 86.58 140.574L87.434 141.008C88.148 140.308 89.044 139.23 89.744 138.278L88.764 137.802ZM85.67 140.392C86.636 141.162 87.812 142.282 88.372 142.996L89.058 142.184C88.498 141.498 87.336 140.462 86.314 139.692L85.67 140.392ZM91.116 139.23C89.842 141.288 87.49 143.164 85.096 144.214C85.334 144.424 85.614 144.76 85.782 144.998C88.274 143.836 90.626 141.862 92.054 139.636L91.116 139.23ZM92.208 141.862C90.71 144.2 87.938 146.174 84.984 147.238C85.236 147.49 85.516 147.854 85.67 148.106C88.708 146.916 91.48 144.83 93.118 142.31L92.208 141.862ZM89.702 145.362C90.752 146.202 92.068 147.392 92.698 148.148L93.566 147.378C92.908 146.636 91.564 145.488 90.5 144.69L89.702 145.362ZM94.658 141.498V142.548H107.37V141.498H94.658ZM100.482 139.244V146.762C100.482 147.014 100.384 147.084 100.09 147.098C99.782 147.112 98.746 147.112 97.612 147.07C97.794 147.378 97.99 147.854 98.074 148.162C99.418 148.162 100.328 148.134 100.846 147.966C101.378 147.798 101.574 147.476 101.574 146.776V139.244H100.482ZM96.1 136.22V137.256H105.242V136.22H96.1ZM104.878 136.22V136.458C103.996 137.452 102.134 138.782 100.608 139.51C100.818 139.692 101.14 140.028 101.294 140.266C102.932 139.426 104.92 138.04 106.194 136.752L105.396 136.164L105.158 136.22H104.878ZM109.834 137.494V138.432H113.11V145.698H109.834V146.65H114.09V137.494H109.834ZM109.204 137.494V147.77H110.184V137.494H109.204ZM109.764 141.386V142.324H113.628V141.386H109.764ZM111.346 135.212C111.234 135.94 110.968 137.004 110.73 137.676L111.57 137.886C111.85 137.256 112.2 136.29 112.48 135.422L111.346 135.212ZM116.078 137.452V138.432H120.376V137.452H116.078ZM120.012 137.452V137.676C119.816 143.85 119.592 146.174 119.13 146.678C118.976 146.86 118.808 146.902 118.528 146.902C118.206 146.902 117.366 146.888 116.456 146.818C116.652 147.098 116.778 147.532 116.806 147.84C117.59 147.882 118.416 147.91 118.892 147.854C119.382 147.812 119.704 147.686 120.012 147.28C120.572 146.594 120.768 144.424 120.992 137.998C120.992 137.844 120.992 137.452 120.992 137.452H120.012ZM116.372 135.184C115.924 137.13 115.154 139.062 114.202 140.294C114.454 140.434 114.888 140.728 115.07 140.896C116.036 139.566 116.862 137.508 117.38 135.422L116.372 135.184ZM115.728 141.092C116.498 142.114 117.436 143.5 117.856 144.354L118.752 143.794C118.304 142.968 117.338 141.61 116.54 140.616L115.728 141.092ZM127.096 146.594V147.56H133.858V146.594H127.096ZM126.62 136.654V137.592H131.758V136.654H126.62ZM127.25 135.198C126.438 136.724 124.828 138.53 122.518 139.79C122.756 139.972 123.106 140.336 123.26 140.602C125.696 139.16 127.376 137.256 128.426 135.436L127.25 135.198ZM131.408 136.654V136.836C129.952 140.518 126.074 143.262 122.448 144.312C122.672 144.536 122.938 144.97 123.064 145.25C126.872 144.018 130.82 141.204 132.5 136.976L131.8 136.598L131.604 136.654H131.408ZM124.87 139.146C125.976 139.93 127.306 141.106 127.894 141.904L128.748 141.148C128.104 140.35 126.76 139.23 125.654 138.474L124.87 139.146ZM133.34 142.17V148.148H134.418V142.17H133.34ZM127.572 142.17H127.362L126.522 142.996V148.12H127.572V143.136H133.872V142.17H127.572ZM139.262 139.3V140.266H145.982V139.3H139.262ZM136.98 142.814V143.808H149.048V142.814H136.98ZM142.454 141.764V146.804C142.454 147 142.384 147.056 142.132 147.07C141.88 147.084 140.97 147.084 140.018 147.056C140.2 147.35 140.41 147.798 140.48 148.106C141.67 148.106 142.412 148.092 142.902 147.924C143.406 147.756 143.56 147.448 143.56 146.818V141.764H142.454ZM145.66 139.3V139.51C145.03 140.294 143.784 141.344 142.692 141.932C142.86 142.072 143.14 142.338 143.266 142.534C144.554 141.876 145.94 140.784 146.864 139.762L146.178 139.244L145.94 139.3H145.66ZM142.426 135.226V137.48H143.532V135.226H142.426ZM137.12 136.766V140.056H138.156V137.76H147.788V140.056H148.866V136.766H137.12ZM70.8832 166H64.3344V165.05L67.0072 162.336C67.504 161.835 67.9209 161.388 68.2582 160.996C68.6 160.604 68.8597 160.219 69.0375 159.841C69.2152 159.458 69.3041 159.039 69.3041 158.583C69.3041 158.018 69.1355 157.587 68.7982 157.291C68.4655 156.99 68.0258 156.84 67.4789 156.84C67.0004 156.84 66.5765 156.922 66.2074 157.086C65.8383 157.25 65.46 157.482 65.0726 157.783L64.4642 157.018C64.7286 156.794 65.0157 156.596 65.3256 156.423C65.64 156.25 65.975 156.113 66.3305 156.013C66.6905 155.912 67.0733 155.862 67.4789 155.862C68.0941 155.862 68.625 155.969 69.0717 156.184C69.5183 156.398 69.8624 156.703 70.1039 157.1C70.35 157.496 70.473 157.968 70.473 158.515C70.473 159.043 70.3682 159.535 70.1586 159.991C69.9489 160.442 69.655 160.891 69.2767 161.338C68.8985 161.78 68.4564 162.249 67.9506 162.746L65.7767 164.913V164.961H70.8832V166ZM72.681 165.289C72.681 164.97 72.7585 164.744 72.9135 164.612C73.0684 164.476 73.2575 164.407 73.4808 164.407C73.7133 164.407 73.9092 164.476 74.0687 164.612C74.2282 164.744 74.308 164.97 74.308 165.289C74.308 165.604 74.2282 165.834 74.0687 165.979C73.9092 166.121 73.7133 166.191 73.4808 166.191C73.2575 166.191 73.0684 166.121 72.9135 165.979C72.7585 165.834 72.681 165.604 72.681 165.289ZM80.434 160.736L80.686 161.744C82.072 161.436 83.99 161.016 85.796 160.61L85.726 159.658C83.78 160.078 81.764 160.484 80.434 160.736ZM80.84 155.094V156.088H85.082V155.094H80.84ZM82.646 157.936V165.846C82.646 166.014 82.604 166.07 82.408 166.07C82.226 166.07 81.624 166.07 80.952 166.056C81.106 166.364 81.246 166.826 81.288 167.12C82.156 167.12 82.786 167.092 83.164 166.924C83.542 166.742 83.654 166.434 83.654 165.846V157.936H82.646ZM84.872 155.094V155.318C84.452 156.172 83.584 157.39 82.814 158.09C83.024 158.258 83.332 158.566 83.486 158.776C84.382 157.964 85.404 156.676 86.062 155.514L85.334 155.024L85.124 155.094H84.872ZM85.558 156.158V157.11H93.384V156.158H85.558ZM88.918 154.24V156.592H89.954V154.24H88.918ZM88.764 156.802C88.232 157.67 87.294 158.86 86.58 159.574L87.434 160.008C88.148 159.308 89.044 158.23 89.744 157.278L88.764 156.802ZM85.67 159.392C86.636 160.162 87.812 161.282 88.372 161.996L89.058 161.184C88.498 160.498 87.336 159.462 86.314 158.692L85.67 159.392ZM91.116 158.23C89.842 160.288 87.49 162.164 85.096 163.214C85.334 163.424 85.614 163.76 85.782 163.998C88.274 162.836 90.626 160.862 92.054 158.636L91.116 158.23ZM92.208 160.862C90.71 163.2 87.938 165.174 84.984 166.238C85.236 166.49 85.516 166.854 85.67 167.106C88.708 165.916 91.48 163.83 93.118 161.31L92.208 160.862ZM89.702 164.362C90.752 165.202 92.068 166.392 92.698 167.148L93.566 166.378C92.908 165.636 91.564 164.488 90.5 163.69L89.702 164.362ZM94.658 160.498V161.548H107.37V160.498H94.658ZM100.482 158.244V165.762C100.482 166.014 100.384 166.084 100.09 166.098C99.782 166.112 98.746 166.112 97.612 166.07C97.794 166.378 97.99 166.854 98.074 167.162C99.418 167.162 100.328 167.134 100.846 166.966C101.378 166.798 101.574 166.476 101.574 165.776V158.244H100.482ZM96.1 155.22V156.256H105.242V155.22H96.1ZM104.878 155.22V155.458C103.996 156.452 102.134 157.782 100.608 158.51C100.818 158.692 101.14 159.028 101.294 159.266C102.932 158.426 104.92 157.04 106.194 155.752L105.396 155.164L105.158 155.22H104.878ZM109.834 156.494V157.432H113.11V164.698H109.834V165.65H114.09V156.494H109.834ZM109.204 156.494V166.77H110.184V156.494H109.204ZM109.764 160.386V161.324H113.628V160.386H109.764ZM111.346 154.212C111.234 154.94 110.968 156.004 110.73 156.676L111.57 156.886C111.85 156.256 112.2 155.29 112.48 154.422L111.346 154.212ZM116.078 156.452V157.432H120.376V156.452H116.078ZM120.012 156.452V156.676C119.816 162.85 119.592 165.174 119.13 165.678C118.976 165.86 118.808 165.902 118.528 165.902C118.206 165.902 117.366 165.888 116.456 165.818C116.652 166.098 116.778 166.532 116.806 166.84C117.59 166.882 118.416 166.91 118.892 166.854C119.382 166.812 119.704 166.686 120.012 166.28C120.572 165.594 120.768 163.424 120.992 156.998C120.992 156.844 120.992 156.452 120.992 156.452H120.012ZM116.372 154.184C115.924 156.13 115.154 158.062 114.202 159.294C114.454 159.434 114.888 159.728 115.07 159.896C116.036 158.566 116.862 156.508 117.38 154.422L116.372 154.184ZM115.728 160.092C116.498 161.114 117.436 162.5 117.856 163.354L118.752 162.794C118.304 161.968 117.338 160.61 116.54 159.616L115.728 160.092ZM125.878 154.198C125.192 156.088 124.03 157.908 122.7 159.07C122.966 159.21 123.4 159.56 123.61 159.742C124.912 158.482 126.158 156.536 126.928 154.464L125.878 154.198ZM125.654 155.934L125.15 156.956H134.684V155.934H125.654ZM124.968 159.112V163.41H126.018V160.092H134.376V159.112H124.968ZM122.658 162.878V163.9H135.342V162.878H122.658ZM129.168 156.466V167.134H130.246V156.466H129.168ZM143.182 155.514C143.042 160.302 142.58 164.166 140.592 166.518C140.844 166.658 141.334 166.98 141.516 167.148C143.518 164.544 144.008 160.666 144.232 155.556L143.182 155.514ZM141.586 155.15V156.144H147.116V155.15H141.586ZM146.192 158.972L145.884 159.91H148.194V158.972H146.192ZM147.9 158.972V159.196C147.172 162.836 145.142 165.16 142.566 166.35C142.79 166.518 143.168 166.91 143.308 167.148C145.926 165.832 148.082 163.284 148.95 159.196L148.306 158.93L148.11 158.972H147.9ZM143.952 158.804L143.056 159.07C144.12 162.612 146.038 165.678 148.796 167.106C148.964 166.84 149.286 166.448 149.524 166.252C146.85 165.006 144.904 162.052 143.952 158.804ZM146.668 155.15C146.332 156.648 145.772 158.664 145.338 159.91H146.388C146.766 158.706 147.34 156.718 147.746 155.15H146.668ZM136.854 163.522C136.854 163.312 137.568 162.99 137.568 162.99V162.976C138.94 161.59 140.34 159.658 141.488 157.712L140.606 157.18C139.612 159.112 138.086 161.114 137.61 161.632C137.162 162.15 136.826 162.514 136.518 162.57C136.644 162.836 136.798 163.312 136.854 163.522ZM136.854 163.522C137.162 163.298 137.638 163.116 141.362 162.01C141.32 161.786 141.292 161.38 141.306 161.114L137.274 162.234L136.77 162.64L136.854 163.522ZM136.77 160.092C136.77 159.882 137.4 159.546 137.4 159.546V159.518C138.422 158.244 139.458 156.438 140.214 154.688L139.234 154.226C138.632 155.934 137.582 157.754 137.26 158.23C136.938 158.706 136.686 159.042 136.434 159.098C136.546 159.378 136.714 159.868 136.77 160.092ZM136.77 160.092C137.008 159.98 137.4 159.882 139.794 159.574C139.794 159.364 139.822 158.972 139.878 158.706L137.246 158.986L136.742 159.308L136.77 160.092ZM136.574 165.216L136.84 166.252C138.156 165.748 139.906 165.076 141.558 164.432L141.362 163.508C139.598 164.166 137.778 164.838 136.574 165.216ZM70.514 177.337C70.514 177.784 70.4275 178.171 70.2543 178.499C70.0811 178.827 69.8396 179.096 69.5297 179.306C69.2198 179.511 68.8552 179.654 68.4359 179.736V179.791C69.2289 179.891 69.8236 180.146 70.2201 180.557C70.6211 180.967 70.8217 181.505 70.8217 182.17C70.8217 182.749 70.6849 183.261 70.4115 183.708C70.1426 184.155 69.7279 184.506 69.1674 184.761C68.6114 185.011 67.8982 185.137 67.0277 185.137C66.4991 185.137 66.0092 185.093 65.558 185.007C65.1114 184.925 64.683 184.786 64.2728 184.59V183.523C64.6875 183.729 65.1387 183.89 65.6263 184.009C66.114 184.123 66.5857 184.18 67.0414 184.18C67.9528 184.18 68.6114 184 69.017 183.64C69.4226 183.275 69.6254 182.778 69.6254 182.149C69.6254 181.716 69.5114 181.368 69.2836 181.104C69.0603 180.835 68.7367 180.639 68.3129 180.516C67.8936 180.388 67.3877 180.324 66.7953 180.324H65.7972V179.354H66.8021C67.3444 179.354 67.8047 179.274 68.183 179.114C68.5612 178.955 68.8484 178.731 69.0443 178.444C69.2448 178.153 69.3451 177.809 69.3451 177.412C69.3451 176.906 69.1765 176.517 68.8392 176.243C68.502 175.965 68.044 175.826 67.4652 175.826C67.1097 175.826 66.7862 175.863 66.4945 175.936C66.2028 176.008 65.9294 176.109 65.6742 176.236C65.419 176.364 65.1638 176.512 64.9086 176.681L64.3344 175.901C64.6989 175.619 65.1433 175.375 65.6674 175.17C66.1915 174.965 66.7862 174.862 67.4515 174.862C68.4724 174.862 69.238 175.095 69.7484 175.56C70.2588 176.024 70.514 176.617 70.514 177.337ZM72.681 184.289C72.681 183.97 72.7585 183.744 72.9135 183.612C73.0684 183.476 73.2575 183.407 73.4808 183.407C73.7133 183.407 73.9092 183.476 74.0687 183.612C74.2282 183.744 74.308 183.97 74.308 184.289C74.308 184.604 74.2282 184.834 74.0687 184.979C73.9092 185.121 73.7133 185.191 73.4808 185.191C73.2575 185.191 73.0684 185.121 72.9135 184.979C72.7585 184.834 72.681 184.604 72.681 184.289ZM80.434 179.736L80.686 180.744C82.072 180.436 83.99 180.016 85.796 179.61L85.726 178.658C83.78 179.078 81.764 179.484 80.434 179.736ZM80.84 174.094V175.088H85.082V174.094H80.84ZM82.646 176.936V184.846C82.646 185.014 82.604 185.07 82.408 185.07C82.226 185.07 81.624 185.07 80.952 185.056C81.106 185.364 81.246 185.826 81.288 186.12C82.156 186.12 82.786 186.092 83.164 185.924C83.542 185.742 83.654 185.434 83.654 184.846V176.936H82.646ZM84.872 174.094V174.318C84.452 175.172 83.584 176.39 82.814 177.09C83.024 177.258 83.332 177.566 83.486 177.776C84.382 176.964 85.404 175.676 86.062 174.514L85.334 174.024L85.124 174.094H84.872ZM85.558 175.158V176.11H93.384V175.158H85.558ZM88.918 173.24V175.592H89.954V173.24H88.918ZM88.764 175.802C88.232 176.67 87.294 177.86 86.58 178.574L87.434 179.008C88.148 178.308 89.044 177.23 89.744 176.278L88.764 175.802ZM85.67 178.392C86.636 179.162 87.812 180.282 88.372 180.996L89.058 180.184C88.498 179.498 87.336 178.462 86.314 177.692L85.67 178.392ZM91.116 177.23C89.842 179.288 87.49 181.164 85.096 182.214C85.334 182.424 85.614 182.76 85.782 182.998C88.274 181.836 90.626 179.862 92.054 177.636L91.116 177.23ZM92.208 179.862C90.71 182.2 87.938 184.174 84.984 185.238C85.236 185.49 85.516 185.854 85.67 186.106C88.708 184.916 91.48 182.83 93.118 180.31L92.208 179.862ZM89.702 183.362C90.752 184.202 92.068 185.392 92.698 186.148L93.566 185.378C92.908 184.636 91.564 183.488 90.5 182.69L89.702 183.362ZM94.658 179.498V180.548H107.37V179.498H94.658ZM100.482 177.244V184.762C100.482 185.014 100.384 185.084 100.09 185.098C99.782 185.112 98.746 185.112 97.612 185.07C97.794 185.378 97.99 185.854 98.074 186.162C99.418 186.162 100.328 186.134 100.846 185.966C101.378 185.798 101.574 185.476 101.574 184.776V177.244H100.482ZM96.1 174.22V175.256H105.242V174.22H96.1ZM104.878 174.22V174.458C103.996 175.452 102.134 176.782 100.608 177.51C100.818 177.692 101.14 178.028 101.294 178.266C102.932 177.426 104.92 176.04 106.194 174.752L105.396 174.164L105.158 174.22H104.878ZM108.63 180.898V181.78H121.37V180.898H108.63ZM108.966 173.856V174.78H121.02V173.856H108.966ZM113.488 179.428C112.62 180.8 111.318 182.676 110.422 183.81L111.416 184.146C112.312 182.998 113.6 181.164 114.51 179.708L113.488 179.428ZM117.688 181.206C116.568 183.936 113.824 184.93 108.826 185.196C108.994 185.434 109.162 185.812 109.232 186.12C114.482 185.728 117.464 184.58 118.696 181.5L117.688 181.206ZM111.178 183.67C114.734 184.328 118.164 185.28 120.306 186.162L120.936 185.308C118.766 184.454 115.168 183.516 111.71 182.9L111.178 183.67ZM112.788 174.206V179.092H113.782V174.206H112.788ZM116.05 174.206V179.092H117.044V174.206H116.05ZM110.646 176.838H119.382V178.742H110.646V176.838ZM109.666 175.984V179.61H120.432V175.984H109.666ZM128.65 178.518V179.484H134.194V178.518H128.65ZM130.218 179.036L129.308 179.288C130.344 182.284 132.248 184.86 134.74 186.092C134.908 185.812 135.23 185.406 135.482 185.196C133.06 184.16 131.156 181.724 130.218 179.036ZM133.914 178.518V178.742C133.354 181.458 131.66 184.062 129.042 185.378C129.28 185.588 129.588 185.91 129.756 186.148C132.528 184.678 134.306 181.892 134.978 178.7L134.306 178.476L134.11 178.518H133.914ZM133.48 173.716V173.87C133.396 175.746 133.312 176.488 133.116 176.684C132.99 176.782 132.836 176.796 132.542 176.796C132.262 176.796 131.338 176.796 130.428 176.712C130.582 176.964 130.694 177.328 130.708 177.594C131.646 177.65 132.542 177.65 132.976 177.636C133.438 177.594 133.76 177.524 134.012 177.258C134.32 176.95 134.446 176.138 134.516 174.164C134.53 174.01 134.544 173.716 134.544 173.716H133.48ZM122.448 180.66L122.728 181.724C124.044 181.36 125.78 180.842 127.39 180.338L127.278 179.33C125.514 179.834 123.68 180.352 122.448 180.66ZM122.644 176.068V177.104H127.292V176.068H122.644ZM124.646 173.254V184.818C124.646 185.056 124.562 185.126 124.324 185.126C124.114 185.14 123.386 185.154 122.602 185.126C122.756 185.406 122.91 185.854 122.952 186.12C124.058 186.12 124.716 186.106 125.136 185.924C125.542 185.77 125.71 185.476 125.71 184.818V173.254H124.646ZM127.922 173.716V186.092H128.958V174.71H133.802V173.716H127.922ZM141.096 184.594V185.56H147.858V184.594H141.096ZM140.62 174.654V175.592H145.758V174.654H140.62ZM141.25 173.198C140.438 174.724 138.828 176.53 136.518 177.79C136.756 177.972 137.106 178.336 137.26 178.602C139.696 177.16 141.376 175.256 142.426 173.436L141.25 173.198ZM145.408 174.654V174.836C143.952 178.518 140.074 181.262 136.448 182.312C136.672 182.536 136.938 182.97 137.064 183.25C140.872 182.018 144.82 179.204 146.5 174.976L145.8 174.598L145.604 174.654H145.408ZM138.87 177.146C139.976 177.93 141.306 179.106 141.894 179.904L142.748 179.148C142.104 178.35 140.76 177.23 139.654 176.474L138.87 177.146ZM147.34 180.17V186.148H148.418V180.17H147.34ZM141.572 180.17H141.362L140.522 180.996V186.12H141.572V181.136H147.872V180.17H141.572ZM151.834 175.494V176.432H155.11V183.698H151.834V184.65H156.09V175.494H151.834ZM151.204 175.494V185.77H152.184V175.494H151.204ZM151.764 179.386V180.324H155.628V179.386H151.764ZM153.346 173.212C153.234 173.94 152.968 175.004 152.73 175.676L153.57 175.886C153.85 175.256 154.2 174.29 154.48 173.422L153.346 173.212ZM158.078 175.452V176.432H162.376V175.452H158.078ZM162.012 175.452V175.676C161.816 181.85 161.592 184.174 161.13 184.678C160.976 184.86 160.808 184.902 160.528 184.902C160.206 184.902 159.366 184.888 158.456 184.818C158.652 185.098 158.778 185.532 158.806 185.84C159.59 185.882 160.416 185.91 160.892 185.854C161.382 185.812 161.704 185.686 162.012 185.28C162.572 184.594 162.768 182.424 162.992 175.998C162.992 175.844 162.992 175.452 162.992 175.452H162.012ZM158.372 173.184C157.924 175.13 157.154 177.062 156.202 178.294C156.454 178.434 156.888 178.728 157.07 178.896C158.036 177.566 158.862 175.508 159.38 173.422L158.372 173.184ZM157.728 179.092C158.498 180.114 159.436 181.5 159.856 182.354L160.752 181.794C160.304 180.968 159.338 179.61 158.54 178.616L157.728 179.092ZM165.358 174.136C166.044 174.794 166.912 175.704 167.304 176.278L168.06 175.564C167.64 175.004 166.758 174.136 166.058 173.52L165.358 174.136ZM166.45 185.56C166.632 185.294 166.982 184.986 169.292 183.026C169.18 182.844 168.998 182.452 168.9 182.172L166.506 184.16L166.254 184.594L166.45 185.56ZM164.602 177.622V178.588H167.206V177.622H164.602ZM168.732 180.506V181.472H177.37V180.506H168.732ZM173.884 180.968L173.156 181.276C174.024 182.844 175.55 184.566 176.88 185.448C177.048 185.182 177.37 184.818 177.608 184.622C176.278 183.894 174.71 182.368 173.884 180.968ZM170.454 176.992H175.494V178.448H170.454V176.992ZM170.454 174.71H175.494V176.152H170.454V174.71ZM169.488 173.842V179.316H176.488V173.842H169.488ZM172.232 180.968C171.406 182.508 169.782 184.062 168.256 184.776C168.48 184.972 168.788 185.322 168.942 185.574C170.482 184.72 172.092 182.998 172.974 181.248L172.232 180.968ZM172.582 174.276V178.882H172.554V186.12H173.59V178.882H173.548V174.276H172.582ZM166.45 185.56C166.45 185.14 167.57 184.048 167.57 184.048V177.622H166.562V183.348C166.562 184.076 166.072 184.622 165.806 184.86C166.002 185 166.324 185.364 166.45 185.56ZM187.016 179.848V185.448H188.052V179.848H187.016ZM183.936 179.47V180.394H191.174V179.47H183.936ZM183.334 184.818V185.756H191.482V184.818H183.334ZM184.272 182.074V182.984H190.852V182.074H184.272ZM185.448 174.738H189.662V177.328H185.448V174.738ZM184.468 173.828V178.238H190.684V173.828H184.468ZM180.968 174.402V186.092H181.99V174.402H180.968ZM178.672 177.188V178.182H183.754V177.188H178.672ZM181.024 177.566C180.52 179.302 179.4 181.486 178.392 182.606C178.574 182.844 178.826 183.278 178.924 183.572C180.002 182.27 181.122 179.82 181.682 177.846L181.024 177.566ZM183.04 173.45C182.018 173.926 180.17 174.318 178.588 174.584C178.714 174.822 178.854 175.158 178.91 175.396C180.534 175.172 182.494 174.78 183.782 174.262L183.04 173.45ZM181.948 178.994L181.458 179.414C181.892 179.904 182.942 181.234 183.278 181.808L183.894 180.982C183.614 180.632 182.298 179.302 181.948 178.994Z" fill="#718380"/>
<rect x="19" y="287" width="81" height="22" rx="11" fill="#8BB1AA"/>
<path d="M49.8203 300.668C49.8203 301.176 49.6953 301.613 49.4453 301.98C49.1992 302.348 48.8438 302.629 48.3789 302.824C47.918 303.02 47.3672 303.117 46.7266 303.117C46.4141 303.117 46.1152 303.1 45.8301 303.064C45.5449 303.029 45.2754 302.979 45.0215 302.912C44.7715 302.842 44.543 302.758 44.3359 302.66V301.336C44.6836 301.488 45.0723 301.627 45.502 301.752C45.9316 301.873 46.3691 301.934 46.8145 301.934C47.1777 301.934 47.4785 301.887 47.7168 301.793C47.959 301.695 48.1387 301.559 48.2559 301.383C48.373 301.203 48.4316 300.994 48.4316 300.756C48.4316 300.502 48.3633 300.287 48.2266 300.111C48.0898 299.936 47.8828 299.775 47.6055 299.631C47.332 299.482 46.9883 299.324 46.5742 299.156C46.293 299.043 46.0234 298.914 45.7656 298.77C45.5117 298.625 45.2852 298.455 45.0859 298.26C44.8867 298.064 44.7285 297.834 44.6113 297.568C44.498 297.299 44.4414 296.982 44.4414 296.619C44.4414 296.135 44.5566 295.721 44.7871 295.377C45.0215 295.033 45.3496 294.77 45.7715 294.586C46.1973 294.402 46.6934 294.311 47.2598 294.311C47.709 294.311 48.1309 294.357 48.5254 294.451C48.9238 294.545 49.3145 294.678 49.6973 294.85L49.252 295.98C48.9004 295.836 48.5586 295.721 48.2266 295.635C47.8984 295.549 47.5625 295.506 47.2188 295.506C46.9219 295.506 46.6699 295.551 46.4629 295.641C46.2559 295.73 46.0977 295.857 45.9883 296.021C45.8828 296.182 45.8301 296.373 45.8301 296.596C45.8301 296.846 45.8906 297.057 46.0117 297.229C46.1367 297.396 46.3281 297.551 46.5859 297.691C46.8477 297.832 47.1836 297.988 47.5938 298.16C48.0664 298.355 48.4668 298.561 48.7949 298.775C49.127 298.99 49.3809 299.248 49.5566 299.549C49.7324 299.846 49.8203 300.219 49.8203 300.668ZM56.3242 303H51.4727V294.434H56.3242V295.617H52.8789V297.943H56.1074V299.121H52.8789V301.811H56.3242V303ZM65.3242 303H63.5957L59.4004 296.162H59.3477C59.3633 296.393 59.377 296.637 59.3887 296.895C59.4043 297.152 59.416 297.418 59.4238 297.691C59.4355 297.965 59.4453 298.242 59.4531 298.523V303H58.1758V294.434H59.8926L64.082 301.225H64.123C64.1152 301.025 64.1055 300.797 64.0938 300.539C64.082 300.281 64.0703 300.016 64.0586 299.742C64.0508 299.465 64.0449 299.197 64.041 298.939V294.434H65.3242V303ZM74.5293 298.635C74.5293 299.6 74.3496 300.406 73.9902 301.055C73.6309 301.699 73.1094 302.186 72.4258 302.514C71.7422 302.838 70.918 303 69.9531 303H67.5742V294.434H70.2109C71.0977 294.434 71.8633 294.594 72.5078 294.914C73.1523 295.23 73.6504 295.701 74.002 296.326C74.3535 296.947 74.5293 297.717 74.5293 298.635ZM73.0645 298.676C73.0645 297.973 72.9531 297.395 72.7305 296.941C72.5117 296.488 72.1875 296.152 71.7578 295.934C71.332 295.711 70.8066 295.6 70.1816 295.6H68.9805V301.822H69.9766C71.0117 301.822 71.7852 301.559 72.2969 301.031C72.8086 300.504 73.0645 299.719 73.0645 298.676Z" fill="#ADD7CF"/>
<path d="M523.5 294H521.5V292.75C521.5 292.198 521.052 291.75 520.5 291.75H515.5C514.948 291.75 514.5 292.198 514.5 292.75V294H512.5C512.223 294 512 294.223 512 294.5V295C512 295.069 512.056 295.125 512.125 295.125H513.069L513.455 303.297C513.48 303.83 513.92 304.25 514.453 304.25H521.547C522.081 304.25 522.52 303.831 522.545 303.297L522.931 295.125H523.875C523.944 295.125 524 295.069 524 295V294.5C524 294.223 523.777 294 523.5 294ZM520.375 294H515.625V292.875H520.375V294Z" fill="#718380"/>
<path fill-rule="evenodd" clip-rule="evenodd" d="M121.5 291.375C121.673 291.375 121.841 291.426 121.985 291.522C122.129 291.618 122.241 291.754 122.308 291.913L125.581 299.771L125.597 299.807L126.683 302.414C126.768 302.627 126.765 302.865 126.676 303.077C126.587 303.289 126.418 303.457 126.206 303.545C125.994 303.634 125.756 303.635 125.543 303.549C125.33 303.463 125.159 303.297 125.067 303.086L124.198 301H118.802L117.933 303.087C117.843 303.301 117.672 303.471 117.458 303.559C117.243 303.648 117.002 303.647 116.788 303.558C116.574 303.468 116.404 303.298 116.316 303.083C116.227 302.868 116.228 302.627 116.317 302.413L117.403 299.807C117.408 299.795 117.413 299.782 117.419 299.77L120.692 291.914C120.759 291.754 120.871 291.618 121.015 291.522C121.158 291.426 121.327 291.375 121.5 291.375ZM119.531 299.25H123.469L121.5 294.525L119.531 299.25Z" fill="#718380"/>
<path d="M161.5 289.3C159.59 289.3 157.759 290.058 156.409 291.409C155.059 292.759 154.3 294.59 154.3 296.5C154.3 297.445 154.486 298.382 154.848 299.255C155.21 300.129 155.741 300.922 156.409 301.591C157.078 302.259 157.872 302.79 158.745 303.152C159.619 303.513 160.555 303.699 161.5 303.699C162.446 303.699 163.382 303.513 164.256 303.151C165.129 302.789 165.923 302.259 166.591 301.59C167.26 300.922 167.79 300.128 168.152 299.254C168.514 298.381 168.7 297.445 168.7 296.499C168.7 292.523 165.476 289.3 161.5 289.3ZM161.5 302.199C160.746 302.208 159.998 302.067 159.299 301.784C158.6 301.502 157.964 301.083 157.427 300.553C156.891 300.023 156.465 299.392 156.175 298.696C155.884 298 155.735 297.253 155.735 296.499C155.735 295.745 155.884 294.999 156.175 294.303C156.465 293.607 156.891 292.976 157.427 292.446C157.964 291.916 158.6 291.497 159.299 291.215C159.998 290.932 160.746 290.791 161.5 290.8C162.254 290.791 163.002 290.932 163.701 291.215C164.4 291.497 165.037 291.916 165.573 292.446C166.109 292.976 166.535 293.607 166.825 294.303C167.116 294.999 167.265 295.745 167.265 296.499C167.265 297.253 167.116 298 166.825 298.696C166.535 299.392 166.109 300.023 165.573 300.553C165.037 301.083 164.4 301.502 163.701 301.784C163.002 302.067 162.254 302.208 161.5 302.199V302.199ZM159.626 296.312C160.247 296.312 160.75 295.725 160.75 295C160.75 294.275 160.246 293.687 159.625 293.687C159.004 293.687 158.5 294.275 158.5 295C158.5 295.725 159.004 296.312 159.626 296.312V296.312ZM163.375 296.312C163.997 296.312 164.5 295.725 164.5 295C164.5 294.275 163.996 293.687 163.375 293.687C162.754 293.687 162.25 294.275 162.25 295C162.25 295.724 162.754 296.312 163.375 296.312ZM164.756 297.502C164.623 297.435 164.47 297.423 164.329 297.468C164.188 297.512 164.069 297.611 164 297.742C163.974 297.791 163.348 298.937 161.501 298.937C159.663 298.937 159.033 297.802 159.001 297.743C158.934 297.609 158.816 297.508 158.674 297.462C158.532 297.415 158.378 297.427 158.245 297.495C158.112 297.562 158.011 297.68 157.964 297.822C157.918 297.963 157.929 298.118 157.997 298.251C158.034 298.325 158.933 300.062 161.501 300.062C164.07 300.062 164.967 298.325 165.003 298.25C165.069 298.118 165.08 297.965 165.034 297.825C164.988 297.685 164.888 297.569 164.756 297.502Z" fill="#718380"/>
<path d="M181.667 297.5C181.667 297.688 181.741 297.868 181.874 298.001C182.007 298.134 182.187 298.209 182.375 298.209H186.625C186.813 298.209 186.993 298.134 187.126 298.001C187.259 297.868 187.333 297.688 187.333 297.5C187.333 297.312 187.259 297.132 187.126 296.999C186.993 296.867 186.813 296.792 186.625 296.792H182.375C182.187 296.792 182.007 296.867 181.874 296.999C181.741 297.132 181.667 297.312 181.667 297.5Z" fill="#718380"/>
<path d="M182.375 300.334H181.107C180.379 300.353 179.67 300.1 179.119 299.625C178.567 299.149 178.213 298.485 178.125 297.762C178.088 297.369 178.135 296.972 178.261 296.597C178.386 296.223 178.589 295.879 178.856 295.587C179.123 295.296 179.448 295.063 179.81 294.905C180.172 294.746 180.563 294.665 180.958 294.667H182.375C182.563 294.667 182.743 294.592 182.876 294.459C183.009 294.327 183.083 294.146 183.083 293.959C183.083 293.771 183.009 293.591 182.876 293.458C182.743 293.325 182.563 293.25 182.375 293.25H181.107C180.057 293.236 179.037 293.602 178.236 294.28C177.434 294.958 176.904 295.903 176.744 296.941C176.664 297.541 176.714 298.151 176.889 298.731C177.064 299.31 177.361 299.846 177.76 300.301C178.159 300.757 178.651 301.122 179.203 301.371C179.754 301.621 180.353 301.751 180.958 301.75H182.375C182.563 301.75 182.743 301.676 182.876 301.543C183.009 301.41 183.083 301.23 183.083 301.042C183.083 300.854 183.009 300.674 182.876 300.541C182.743 300.408 182.563 300.334 182.375 300.334ZM192.292 296.962C192.133 295.911 191.597 294.954 190.783 294.271C189.969 293.588 188.934 293.225 187.872 293.25H186.802C186.228 293.25 185.917 293.569 185.917 293.959C185.917 294.146 185.991 294.327 186.124 294.459C186.257 294.592 186.437 294.667 186.625 294.667H187.893C188.621 294.648 189.33 294.9 189.881 295.376C190.433 295.851 190.787 296.515 190.875 297.238C190.912 297.632 190.865 298.029 190.74 298.403C190.614 298.778 190.411 299.122 190.144 299.413C189.877 299.705 189.552 299.937 189.19 300.096C188.828 300.254 188.437 300.335 188.042 300.334H186.625C186.437 300.334 186.257 300.408 186.124 300.541C185.991 300.674 185.917 300.854 185.917 301.042C185.917 301.23 185.991 301.41 186.124 301.543C186.257 301.676 186.437 301.75 186.625 301.75H188.042C188.648 301.755 189.249 301.63 189.803 301.384C190.357 301.137 190.852 300.775 191.255 300.322C191.657 299.868 191.958 299.334 192.137 298.754C192.316 298.175 192.369 297.564 192.292 296.962V296.962Z" fill="#718380"/>
<path d="M210.875 291.875H202.125C201.436 291.875 200.875 292.436 200.875 293.125V301.875C200.875 302.564 201.436 303.125 202.125 303.125H210.875C211.564 303.125 212.125 302.564 212.125 301.875V293.125C212.125 292.436 211.564 291.875 210.875 291.875ZM202.125 301.875V293.125H210.875L210.876 301.875H202.125Z" fill="#718380"/>
<path d="M205.25 298.75L204.625 298.125L202.75 300.625H210.25L207.125 296.25L205.25 298.75Z" fill="#718380"/>
</svg>
