<svg width="360" height="265" viewBox="0 0 360 265" fill="none" xmlns="http://www.w3.org/2000/svg">
<circle cx="119" cy="34.8125" r="28" fill="#C2EDE5"/>
<circle cx="119" cy="34.8125" r="28" fill="url(#paint0_linear_277_19)"/>
<circle cx="163.951" cy="55.2834" r="14.6797" transform="rotate(-72.6785 163.951 55.2834)" fill="#C2EDE5"/>
<circle cx="163.951" cy="55.2834" r="14.6797" transform="rotate(-72.6785 163.951 55.2834)" fill="url(#paint1_linear_277_19)"/>
<circle cx="189.891" cy="27.1892" r="10.0801" transform="rotate(-53.2208 189.891 27.1892)" fill="#C2EDE5"/>
<circle cx="189.891" cy="27.1892" r="10.0801" transform="rotate(-53.2208 189.891 27.1892)" fill="url(#paint2_linear_277_19)"/>
<circle cx="86.8265" cy="74.6699" r="14.0738" transform="rotate(-20.0508 86.8265 74.6699)" fill="#C2EDE5"/>
<circle cx="86.8265" cy="74.6699" r="14.0738" transform="rotate(-20.0508 86.8265 74.6699)" fill="url(#paint3_linear_277_19)"/>
<circle cx="41.2572" cy="87.507" r="25.1306" transform="rotate(-20.0508 41.2572 87.507)" fill="#C2EDE5"/>
<circle cx="41.2572" cy="87.507" r="25.1306" transform="rotate(-20.0508 41.2572 87.507)" fill="url(#paint4_linear_277_19)"/>
<circle cx="64.6866" cy="54.4042" r="6.62173" transform="rotate(-20.0508 64.6866 54.4042)" fill="#C2EDE5"/>
<circle cx="64.6866" cy="54.4042" r="6.62173" transform="rotate(-20.0508 64.6866 54.4042)" fill="url(#paint5_linear_277_19)"/>
<circle cx="-11.143" cy="55.4086" r="30.4892" transform="rotate(-83.2595 -11.143 55.4086)" fill="#C2EDE5"/>
<circle cx="-11.143" cy="55.4086" r="30.4892" transform="rotate(-83.2595 -11.143 55.4086)" fill="url(#paint6_linear_277_19)"/>
<circle cx="163.416" cy="22.5779" r="3.47999" transform="rotate(-20.0508 163.416 22.5779)" fill="#C2EDE5"/>
<circle cx="163.416" cy="22.5779" r="3.47999" transform="rotate(-20.0508 163.416 22.5779)" fill="url(#paint7_linear_277_19)"/>
<circle cx="35.8795" cy="23.4106" r="18.2572" transform="rotate(-20.0508 35.8795 23.4106)" fill="#C2EDE5"/>
<circle cx="35.8795" cy="23.4106" r="18.2572" transform="rotate(-20.0508 35.8795 23.4106)" fill="url(#paint8_linear_277_19)"/>
<circle cx="334.331" cy="83.6689" r="40.0781" transform="rotate(-46.0861 334.331 83.6689)" fill="#C2EDE5"/>
<circle cx="334.331" cy="83.6689" r="40.0781" transform="rotate(-46.0861 334.331 83.6689)" fill="url(#paint9_linear_277_19)"/>
<circle cx="344.029" cy="156.098" r="20.2913" transform="rotate(-66.1369 344.029 156.098)" fill="#C2EDE5"/>
<circle cx="344.029" cy="156.098" r="20.2913" transform="rotate(-66.1369 344.029 156.098)" fill="url(#paint10_linear_277_19)"/>
<circle cx="311.794" cy="216.265" r="36.2328" transform="rotate(-66.1369 311.794 216.265)" fill="#C2EDE5"/>
<circle cx="311.794" cy="216.265" r="36.2328" transform="rotate(-66.1369 311.794 216.265)" fill="url(#paint11_linear_277_19)"/>
<circle cx="292.075" cy="33.0744" r="18.2512" transform="rotate(-66.1369 292.075 33.0744)" fill="#C2EDE5"/>
<circle cx="292.075" cy="33.0744" r="18.2512" transform="rotate(-66.1369 292.075 33.0744)" fill="url(#paint12_linear_277_19)"/>
<defs>
<linearGradient id="paint0_linear_277_19" x1="174.843" y1="51.1721" x2="119" y2="57.3506" gradientUnits="userSpaceOnUse">
<stop stop-color="#D0F1EB"/>
<stop offset="0.97286" stop-color="#E4F9F5" stop-opacity="0"/>
</linearGradient>
<linearGradient id="paint1_linear_277_19" x1="193.228" y1="63.8603" x2="163.951" y2="67.0996" gradientUnits="userSpaceOnUse">
<stop stop-color="#D0F1EB"/>
<stop offset="0.97286" stop-color="#E4F9F5" stop-opacity="0"/>
</linearGradient>
<linearGradient id="paint2_linear_277_19" x1="209.995" y1="33.0787" x2="189.891" y2="35.303" gradientUnits="userSpaceOnUse">
<stop stop-color="#D0F1EB"/>
<stop offset="0.97286" stop-color="#E4F9F5" stop-opacity="0"/>
</linearGradient>
<linearGradient id="paint3_linear_277_19" x1="114.895" y1="82.8928" x2="86.8265" y2="85.9984" gradientUnits="userSpaceOnUse">
<stop stop-color="#D0F1EB"/>
<stop offset="0.97286" stop-color="#E4F9F5" stop-opacity="0"/>
</linearGradient>
<linearGradient id="paint4_linear_277_19" x1="91.3773" y1="102.19" x2="41.2572" y2="107.735" gradientUnits="userSpaceOnUse">
<stop stop-color="#D0F1EB"/>
<stop offset="0.97286" stop-color="#E4F9F5" stop-opacity="0"/>
</linearGradient>
<linearGradient id="paint5_linear_277_19" x1="77.8929" y1="58.2731" x2="64.6866" y2="59.7343" gradientUnits="userSpaceOnUse">
<stop stop-color="#D0F1EB"/>
<stop offset="0.97286" stop-color="#E4F9F5" stop-opacity="0"/>
</linearGradient>
<linearGradient id="paint6_linear_277_19" x1="49.6641" y1="73.2225" x2="-11.143" y2="79.9503" gradientUnits="userSpaceOnUse">
<stop stop-color="#D0F1EB"/>
<stop offset="0.97286" stop-color="#E4F9F5" stop-opacity="0"/>
</linearGradient>
<linearGradient id="paint7_linear_277_19" x1="170.356" y1="24.6111" x2="163.416" y2="25.379" gradientUnits="userSpaceOnUse">
<stop stop-color="#D0F1EB"/>
<stop offset="0.97286" stop-color="#E4F9F5" stop-opacity="0"/>
</linearGradient>
<linearGradient id="paint8_linear_277_19" x1="72.2913" y1="34.0777" x2="35.8795" y2="38.1064" gradientUnits="userSpaceOnUse">
<stop stop-color="#D0F1EB"/>
<stop offset="0.97286" stop-color="#E4F9F5" stop-opacity="0"/>
</linearGradient>
<linearGradient id="paint9_linear_277_19" x1="414.262" y1="107.085" x2="334.331" y2="115.929" gradientUnits="userSpaceOnUse">
<stop stop-color="#D0F1EB"/>
<stop offset="0.97286" stop-color="#E4F9F5" stop-opacity="0"/>
</linearGradient>
<linearGradient id="paint10_linear_277_19" x1="384.498" y1="167.953" x2="344.029" y2="172.431" gradientUnits="userSpaceOnUse">
<stop stop-color="#D0F1EB"/>
<stop offset="0.97286" stop-color="#E4F9F5" stop-opacity="0"/>
</linearGradient>
<linearGradient id="paint11_linear_277_19" x1="384.056" y1="237.435" x2="311.794" y2="245.43" gradientUnits="userSpaceOnUse">
<stop stop-color="#D0F1EB"/>
<stop offset="0.97286" stop-color="#E4F9F5" stop-opacity="0"/>
</linearGradient>
<linearGradient id="paint12_linear_277_19" x1="328.474" y1="43.7381" x2="292.075" y2="47.7654" gradientUnits="userSpaceOnUse">
<stop stop-color="#D0F1EB"/>
<stop offset="0.97286" stop-color="#E4F9F5" stop-opacity="0"/>
</linearGradient>
</defs>
</svg>
