<svg width="401" height="608" viewBox="0 0 401 608" fill="none" xmlns="http://www.w3.org/2000/svg">
<circle cx="377.824" cy="125.842" r="89" transform="rotate(-46.0861 377.824 125.842)" fill="#C2EDE5"/>
<circle cx="377.824" cy="125.842" r="89" transform="rotate(-46.0861 377.824 125.842)" fill="url(#paint0_linear_268_18)"/>
<circle cx="399.36" cy="286.683" r="45.0602" transform="rotate(-66.1369 399.36 286.683)" fill="#C2EDE5"/>
<circle cx="399.36" cy="286.683" r="45.0602" transform="rotate(-66.1369 399.36 286.683)" fill="url(#paint1_linear_268_18)"/>
<circle cx="327.775" cy="420.293" r="80.461" transform="rotate(-66.1369 327.775 420.293)" fill="#C2EDE5"/>
<circle cx="327.775" cy="420.293" r="80.461" transform="rotate(-66.1369 327.775 420.293)" fill="url(#paint2_linear_268_18)"/>
<circle cx="303.453" cy="292.745" r="21.2008" transform="rotate(-66.1369 303.453 292.745)" fill="#C2EDE5"/>
<circle cx="303.453" cy="292.745" r="21.2008" transform="rotate(-66.1369 303.453 292.745)" fill="url(#paint3_linear_268_18)"/>
<circle cx="137.38" cy="469.873" r="97.6174" transform="rotate(-129.346 137.38 469.873)" fill="#C2EDE5"/>
<circle cx="137.38" cy="469.873" r="97.6174" transform="rotate(-129.346 137.38 469.873)" fill="url(#paint4_linear_268_18)"/>
<circle cx="167.998" cy="290.362" r="58.4542" transform="rotate(-66.1369 167.998 290.362)" fill="#C2EDE5"/>
<circle cx="167.998" cy="290.362" r="58.4542" transform="rotate(-66.1369 167.998 290.362)" fill="url(#paint5_linear_268_18)"/>
<defs>
<linearGradient id="paint0_linear_268_18" x1="555.324" y1="177.842" x2="377.824" y2="197.481" gradientUnits="userSpaceOnUse">
<stop stop-color="#D0F1EB"/>
<stop offset="0.97286" stop-color="#E4F9F5" stop-opacity="0"/>
</linearGradient>
<linearGradient id="paint1_linear_268_18" x1="489.227" y1="313.01" x2="399.36" y2="322.954" gradientUnits="userSpaceOnUse">
<stop stop-color="#D0F1EB"/>
<stop offset="0.97286" stop-color="#E4F9F5" stop-opacity="0"/>
</linearGradient>
<linearGradient id="paint2_linear_268_18" x1="488.245" y1="467.304" x2="327.775" y2="485.059" gradientUnits="userSpaceOnUse">
<stop stop-color="#D0F1EB"/>
<stop offset="0.97286" stop-color="#E4F9F5" stop-opacity="0"/>
</linearGradient>
<linearGradient id="paint3_linear_268_18" x1="345.736" y1="305.132" x2="303.453" y2="309.81" gradientUnits="userSpaceOnUse">
<stop stop-color="#D0F1EB"/>
<stop offset="0.97286" stop-color="#E4F9F5" stop-opacity="0"/>
</linearGradient>
<linearGradient id="paint4_linear_268_18" x1="332.066" y1="526.908" x2="137.38" y2="548.448" gradientUnits="userSpaceOnUse">
<stop stop-color="#D0F1EB"/>
<stop offset="0.97286" stop-color="#E4F9F5" stop-opacity="0"/>
</linearGradient>
<linearGradient id="paint5_linear_268_18" x1="284.578" y1="324.516" x2="167.998" y2="337.414" gradientUnits="userSpaceOnUse">
<stop stop-color="#D0F1EB"/>
<stop offset="0.97286" stop-color="#E4F9F5" stop-opacity="0"/>
</linearGradient>
</defs>
</svg>
