<svg width="313" height="348" viewBox="0 0 313 348" fill="none" xmlns="http://www.w3.org/2000/svg">
<circle cx="45.4892" cy="97.3501" r="6.35149" transform="rotate(-112.455 45.4892 97.3501)" fill="#D0F1EB"/>
<circle cx="45.4892" cy="97.3501" r="6.35149" transform="rotate(-112.455 45.4892 97.3501)" fill="url(#paint0_linear_584_19)"/>
<circle cx="-46.6217" cy="221.836" r="92.7862" transform="rotate(-27.84 -46.6217 221.836)" fill="#D0F1EB"/>
<circle cx="-46.6217" cy="221.836" r="92.7862" transform="rotate(-27.84 -46.6217 221.836)" fill="url(#paint1_linear_584_19)"/>
<circle cx="116.26" cy="128.269" r="55.9534" transform="rotate(-112.455 116.26 128.269)" fill="#D0F1EB"/>
<circle cx="116.26" cy="128.269" r="55.9534" transform="rotate(-112.455 116.26 128.269)" fill="url(#paint2_linear_584_19)"/>
<circle cx="101.434" cy="246.188" r="35.0614" transform="rotate(-112.455 101.434 246.188)" fill="#D0F1EB"/>
<circle cx="101.434" cy="246.188" r="35.0614" transform="rotate(-112.455 101.434 246.188)" fill="url(#paint3_linear_584_19)"/>
<circle cx="197.945" cy="81.1674" r="16.3674" transform="rotate(-112.455 197.945 81.1674)" fill="#D0F1EB"/>
<circle cx="197.945" cy="81.1674" r="16.3674" transform="rotate(-112.455 197.945 81.1674)" fill="url(#paint4_linear_584_19)"/>
<circle cx="177.011" cy="21.3779" r="16.3674" transform="rotate(-112.455 177.011 21.3779)" fill="#D0F1EB"/>
<circle cx="177.011" cy="21.3779" r="16.3674" transform="rotate(-112.455 177.011 21.3779)" fill="url(#paint5_linear_584_19)"/>
<circle cx="22.5094" cy="122.608" r="12.016" transform="rotate(-112.455 22.5094 122.608)" fill="#D0F1EB"/>
<circle cx="22.5094" cy="122.608" r="12.016" transform="rotate(-112.455 22.5094 122.608)" fill="url(#paint6_linear_584_19)"/>
<circle cx="266.958" cy="49.3929" r="34.7812" transform="rotate(-112.455 266.958 49.3929)" fill="#D0F1EB"/>
<circle cx="266.958" cy="49.3929" r="34.7812" transform="rotate(-112.455 266.958 49.3929)" fill="url(#paint7_linear_584_19)"/>
<defs>
<linearGradient id="paint0_linear_584_19" x1="55.1018" y1="101.266" x2="45.4892" y2="102.463" gradientUnits="userSpaceOnUse">
<stop stop-color="#E4F9F5"/>
<stop offset="0.97286" stop-color="#E4F9F5" stop-opacity="0"/>
</linearGradient>
<linearGradient id="paint1_linear_584_19" x1="93.8059" y1="279.047" x2="-46.6217" y2="296.523" gradientUnits="userSpaceOnUse">
<stop stop-color="#E4F9F5"/>
<stop offset="0.97286" stop-color="#E4F9F5" stop-opacity="0"/>
</linearGradient>
<linearGradient id="paint2_linear_584_19" x1="200.942" y1="162.77" x2="116.26" y2="173.308" gradientUnits="userSpaceOnUse">
<stop stop-color="#E4F9F5"/>
<stop offset="0.97286" stop-color="#E4F9F5" stop-opacity="0"/>
</linearGradient>
<linearGradient id="paint3_linear_584_19" x1="154.498" y1="267.806" x2="101.434" y2="274.41" gradientUnits="userSpaceOnUse">
<stop stop-color="#E4F9F5"/>
<stop offset="0.97286" stop-color="#E4F9F5" stop-opacity="0"/>
</linearGradient>
<linearGradient id="paint4_linear_584_19" x1="222.716" y1="91.2594" x2="197.945" y2="94.3421" gradientUnits="userSpaceOnUse">
<stop stop-color="#E4F9F5"/>
<stop offset="0.97286" stop-color="#E4F9F5" stop-opacity="0"/>
</linearGradient>
<linearGradient id="paint5_linear_584_19" x1="201.782" y1="31.4699" x2="177.011" y2="34.5525" gradientUnits="userSpaceOnUse">
<stop stop-color="#E4F9F5"/>
<stop offset="0.97286" stop-color="#E4F9F5" stop-opacity="0"/>
</linearGradient>
<linearGradient id="paint6_linear_584_19" x1="40.6951" y1="130.017" x2="22.5094" y2="132.28" gradientUnits="userSpaceOnUse">
<stop stop-color="#E4F9F5"/>
<stop offset="0.97286" stop-color="#E4F9F5" stop-opacity="0"/>
</linearGradient>
<linearGradient id="paint7_linear_584_19" x1="319.598" y1="70.8387" x2="266.958" y2="77.3894" gradientUnits="userSpaceOnUse">
<stop stop-color="#E4F9F5"/>
<stop offset="0.97286" stop-color="#E4F9F5" stop-opacity="0"/>
</linearGradient>
</defs>
</svg>
