<svg width="495" height="347" viewBox="0 0 495 347" fill="none" xmlns="http://www.w3.org/2000/svg">
<circle cx="180.171" cy="196.444" r="19.0821" transform="rotate(-121.261 180.171 196.444)" fill="#D0F1EB"/>
<circle cx="180.171" cy="196.444" r="19.0821" transform="rotate(-121.261 180.171 196.444)" fill="url(#paint0_linear_584_18)"/>
<circle cx="275.992" cy="112.467" r="81.8685" transform="rotate(-121.261 275.992 112.467)" fill="#D0F1EB"/>
<circle cx="275.992" cy="112.467" r="81.8685" transform="rotate(-121.261 275.992 112.467)" fill="url(#paint1_linear_584_18)"/>
<circle cx="327.089" cy="265.756" r="50.1796" transform="rotate(-121.261 327.089 265.756)" fill="#D0F1EB"/>
<circle cx="327.089" cy="265.756" r="50.1796" transform="rotate(-121.261 327.089 265.756)" fill="url(#paint2_linear_584_18)"/>
<circle cx="388.08" cy="185.908" r="27.7039" transform="rotate(-121.261 388.08 185.908)" fill="#D0F1EB"/>
<circle cx="388.08" cy="185.908" r="27.7039" transform="rotate(-121.261 388.08 185.908)" fill="url(#paint3_linear_584_18)"/>
<circle cx="452.576" cy="272.2" r="54.1763" transform="rotate(-121.261 452.576 272.2)" fill="#D0F1EB"/>
<circle cx="452.576" cy="272.2" r="54.1763" transform="rotate(-121.261 452.576 272.2)" fill="url(#paint4_linear_584_18)"/>
<circle cx="447.053" cy="185.55" r="15.9541" transform="rotate(-121.261 447.053 185.55)" fill="#D0F1EB"/>
<circle cx="447.053" cy="185.55" r="15.9541" transform="rotate(-121.261 447.053 185.55)" fill="url(#paint5_linear_584_18)"/>
<circle cx="494.949" cy="159.649" r="10.7916" transform="rotate(-121.261 494.949 159.649)" fill="#D0F1EB"/>
<circle cx="494.949" cy="159.649" r="10.7916" transform="rotate(-121.261 494.949 159.649)" fill="url(#paint6_linear_584_18)"/>
<circle cx="150.851" cy="244.678" r="21.36" transform="rotate(-121.261 150.851 244.678)" fill="#D0F1EB"/>
<circle cx="150.851" cy="244.678" r="21.36" transform="rotate(-121.261 150.851 244.678)" fill="url(#paint7_linear_584_18)"/>
<circle cx="214.461" cy="256.779" r="11.8472" transform="rotate(-121.261 214.461 256.779)" fill="#D0F1EB"/>
<circle cx="214.461" cy="256.779" r="11.8472" transform="rotate(-121.261 214.461 256.779)" fill="url(#paint8_linear_584_18)"/>
<circle cx="84.9356" cy="140.059" r="61.8278" transform="rotate(-121.261 84.9356 140.059)" fill="#D0F1EB"/>
<circle cx="84.9356" cy="140.059" r="61.8278" transform="rotate(-121.261 84.9356 140.059)" fill="url(#paint9_linear_584_18)"/>
<defs>
<linearGradient id="paint0_linear_584_18" x1="209.051" y1="208.21" x2="180.171" y2="211.804" gradientUnits="userSpaceOnUse">
<stop stop-color="#E4F9F5"/>
<stop offset="0.97286" stop-color="#E4F9F5" stop-opacity="0"/>
</linearGradient>
<linearGradient id="paint1_linear_584_18" x1="399.896" y1="162.946" x2="275.992" y2="178.365" gradientUnits="userSpaceOnUse">
<stop stop-color="#E4F9F5"/>
<stop offset="0.97286" stop-color="#E4F9F5" stop-opacity="0"/>
</linearGradient>
<linearGradient id="paint2_linear_584_18" x1="403.033" y1="296.697" x2="327.089" y2="306.148" gradientUnits="userSpaceOnUse">
<stop stop-color="#E4F9F5"/>
<stop offset="0.97286" stop-color="#E4F9F5" stop-opacity="0"/>
</linearGradient>
<linearGradient id="paint3_linear_584_18" x1="430.008" y1="202.99" x2="388.08" y2="208.208" gradientUnits="userSpaceOnUse">
<stop stop-color="#E4F9F5"/>
<stop offset="0.97286" stop-color="#E4F9F5" stop-opacity="0"/>
</linearGradient>
<linearGradient id="paint4_linear_584_18" x1="534.569" y1="305.605" x2="452.576" y2="315.809" gradientUnits="userSpaceOnUse">
<stop stop-color="#E4F9F5"/>
<stop offset="0.97286" stop-color="#E4F9F5" stop-opacity="0"/>
</linearGradient>
<linearGradient id="paint5_linear_584_18" x1="471.198" y1="195.387" x2="447.053" y2="198.392" gradientUnits="userSpaceOnUse">
<stop stop-color="#E4F9F5"/>
<stop offset="0.97286" stop-color="#E4F9F5" stop-opacity="0"/>
</linearGradient>
<linearGradient id="paint6_linear_584_18" x1="511.282" y1="166.303" x2="494.949" y2="168.335" gradientUnits="userSpaceOnUse">
<stop stop-color="#E4F9F5"/>
<stop offset="0.97286" stop-color="#E4F9F5" stop-opacity="0"/>
</linearGradient>
<linearGradient id="paint7_linear_584_18" x1="183.179" y1="257.848" x2="150.851" y2="261.871" gradientUnits="userSpaceOnUse">
<stop stop-color="#E4F9F5"/>
<stop offset="0.97286" stop-color="#E4F9F5" stop-opacity="0"/>
</linearGradient>
<linearGradient id="paint8_linear_584_18" x1="232.391" y1="264.084" x2="214.461" y2="266.315" gradientUnits="userSpaceOnUse">
<stop stop-color="#E4F9F5"/>
<stop offset="0.97286" stop-color="#E4F9F5" stop-opacity="0"/>
</linearGradient>
<linearGradient id="paint9_linear_584_18" x1="178.509" y1="178.181" x2="84.9356" y2="189.826" gradientUnits="userSpaceOnUse">
<stop stop-color="#E4F9F5"/>
<stop offset="0.97286" stop-color="#E4F9F5" stop-opacity="0"/>
</linearGradient>
</defs>
</svg>
