<svg width="267" height="679" viewBox="0 0 267 679" fill="none" xmlns="http://www.w3.org/2000/svg">
<circle cx="76.2957" cy="119.296" r="92.7863" transform="rotate(69.6145 76.2957 119.296)" fill="#D0F1EB"/>
<circle cx="76.2957" cy="119.296" r="92.7863" transform="rotate(69.6145 76.2957 119.296)" fill="url(#paint0_linear_391_17)"/>
<circle cx="147.94" cy="292.94" r="55.9534" transform="rotate(-15 147.94 292.94)" fill="#D0F1EB"/>
<circle cx="147.94" cy="292.94" r="55.9534" transform="rotate(-15 147.94 292.94)" fill="url(#paint1_linear_391_17)"/>
<circle cx="32.9412" cy="262.941" r="35.0614" transform="rotate(-15 32.9412 262.941)" fill="#D0F1EB"/>
<circle cx="32.9412" cy="262.941" r="35.0614" transform="rotate(-15 32.9412 262.941)" fill="url(#paint2_linear_391_17)"/>
<circle cx="184.046" cy="380.046" r="16.3674" transform="rotate(-15 184.046 380.046)" fill="#D0F1EB"/>
<circle cx="184.046" cy="380.046" r="16.3674" transform="rotate(-15 184.046 380.046)" fill="url(#paint3_linear_391_17)"/>
<circle cx="246.046" cy="367.046" r="16.3674" transform="rotate(-15 246.046 367.046)" fill="#D0F1EB"/>
<circle cx="246.046" cy="367.046" r="16.3674" transform="rotate(-15 246.046 367.046)" fill="url(#paint4_linear_391_17)"/>
<circle cx="161.147" cy="495.147" r="10.7346" transform="rotate(-15 161.147 495.147)" fill="#D0F1EB"/>
<circle cx="161.147" cy="495.147" r="10.7346" transform="rotate(-15 161.147 495.147)" fill="url(#paint5_linear_391_17)"/>
<circle cx="191.406" cy="560.122" r="46.055" transform="rotate(-15 191.406 560.122)" fill="#D0F1EB"/>
<circle cx="191.406" cy="560.122" r="46.055" transform="rotate(-15 191.406 560.122)" fill="url(#paint6_linear_391_17)"/>
<circle cx="100.573" cy="563.573" r="28.2285" transform="rotate(-15 100.573 563.573)" fill="#D0F1EB"/>
<circle cx="100.573" cy="563.573" r="28.2285" transform="rotate(-15 100.573 563.573)" fill="url(#paint7_linear_391_17)"/>
<circle cx="134.087" cy="609.088" r="15.5848" transform="rotate(-15 134.087 609.088)" fill="#D0F1EB"/>
<circle cx="134.087" cy="609.088" r="15.5848" transform="rotate(-15 134.087 609.088)" fill="url(#paint8_linear_391_17)"/>
<circle cx="77.3264" cy="630.326" r="30.4769" transform="rotate(-15 77.3264 630.326)" fill="#D0F1EB"/>
<circle cx="77.3264" cy="630.326" r="30.4769" transform="rotate(-15 77.3264 630.326)" fill="url(#paint9_linear_391_17)"/>
<circle cx="124.992" cy="640.992" r="8.97495" transform="rotate(-15 124.992 640.992)" fill="#D0F1EB"/>
<circle cx="124.992" cy="640.992" r="8.97495" transform="rotate(-15 124.992 640.992)" fill="url(#paint10_linear_391_17)"/>
<circle cx="131.435" cy="670.938" r="6.07079" transform="rotate(-15 131.435 670.938)" fill="#D0F1EB"/>
<circle cx="131.435" cy="670.938" r="6.07079" transform="rotate(-15 131.435 670.938)" fill="url(#paint11_linear_391_17)"/>
<circle cx="139.717" cy="471.716" r="12.016" transform="rotate(-15 139.717 471.716)" fill="#D0F1EB"/>
<circle cx="139.717" cy="471.716" r="12.016" transform="rotate(-15 139.717 471.716)" fill="url(#paint12_linear_391_17)"/>
<circle cx="165.717" cy="200.716" r="12.016" transform="rotate(-15 165.717 200.716)" fill="#D0F1EB"/>
<circle cx="165.717" cy="200.716" r="12.016" transform="rotate(-15 165.717 200.716)" fill="url(#paint13_linear_391_17)"/>
<circle cx="187.779" cy="226.779" r="6.35149" transform="rotate(-15 187.779 226.779)" fill="#D0F1EB"/>
<circle cx="187.779" cy="226.779" r="6.35149" transform="rotate(-15 187.779 226.779)" fill="url(#paint14_linear_391_17)"/>
<circle cx="123.162" cy="504.162" r="6.66465" transform="rotate(-15 123.162 504.162)" fill="#D0F1EB"/>
<circle cx="123.162" cy="504.162" r="6.66465" transform="rotate(-15 123.162 504.162)" fill="url(#paint15_linear_391_17)"/>
<circle cx="206.598" cy="452.598" r="34.7812" transform="rotate(-15 206.598 452.598)" fill="#D0F1EB"/>
<circle cx="206.598" cy="452.598" r="34.7812" transform="rotate(-15 206.598 452.598)" fill="url(#paint16_linear_391_17)"/>
<defs>
<linearGradient id="paint0_linear_391_17" x1="216.723" y1="176.507" x2="76.2957" y2="193.982" gradientUnits="userSpaceOnUse">
<stop stop-color="#E4F9F5"/>
<stop offset="0.97286" stop-color="#E4F9F5" stop-opacity="0"/>
</linearGradient>
<linearGradient id="paint1_linear_391_17" x1="232.622" y1="327.44" x2="147.94" y2="337.978" gradientUnits="userSpaceOnUse">
<stop stop-color="#E4F9F5"/>
<stop offset="0.97286" stop-color="#E4F9F5" stop-opacity="0"/>
</linearGradient>
<linearGradient id="paint2_linear_391_17" x1="86.005" y1="284.56" x2="32.9412" y2="291.163" gradientUnits="userSpaceOnUse">
<stop stop-color="#E4F9F5"/>
<stop offset="0.97286" stop-color="#E4F9F5" stop-opacity="0"/>
</linearGradient>
<linearGradient id="paint3_linear_391_17" x1="208.817" y1="390.138" x2="184.046" y2="393.22" gradientUnits="userSpaceOnUse">
<stop stop-color="#E4F9F5"/>
<stop offset="0.97286" stop-color="#E4F9F5" stop-opacity="0"/>
</linearGradient>
<linearGradient id="paint4_linear_391_17" x1="270.817" y1="377.138" x2="246.046" y2="380.22" gradientUnits="userSpaceOnUse">
<stop stop-color="#E4F9F5"/>
<stop offset="0.97286" stop-color="#E4F9F5" stop-opacity="0"/>
</linearGradient>
<linearGradient id="paint5_linear_391_17" x1="177.393" y1="501.766" x2="161.147" y2="503.788" gradientUnits="userSpaceOnUse">
<stop stop-color="#E4F9F5"/>
<stop offset="0.97286" stop-color="#E4F9F5" stop-opacity="0"/>
</linearGradient>
<linearGradient id="paint6_linear_391_17" x1="261.108" y1="588.52" x2="191.406" y2="597.194" gradientUnits="userSpaceOnUse">
<stop stop-color="#E4F9F5"/>
<stop offset="0.97286" stop-color="#E4F9F5" stop-opacity="0"/>
</linearGradient>
<linearGradient id="paint7_linear_391_17" x1="143.295" y1="580.978" x2="100.573" y2="586.295" gradientUnits="userSpaceOnUse">
<stop stop-color="#E4F9F5"/>
<stop offset="0.97286" stop-color="#E4F9F5" stop-opacity="0"/>
</linearGradient>
<linearGradient id="paint8_linear_391_17" x1="157.674" y1="618.697" x2="134.087" y2="621.632" gradientUnits="userSpaceOnUse">
<stop stop-color="#E4F9F5"/>
<stop offset="0.97286" stop-color="#E4F9F5" stop-opacity="0"/>
</linearGradient>
<linearGradient id="paint9_linear_391_17" x1="123.452" y1="649.118" x2="77.3264" y2="654.858" gradientUnits="userSpaceOnUse">
<stop stop-color="#E4F9F5"/>
<stop offset="0.97286" stop-color="#E4F9F5" stop-opacity="0"/>
</linearGradient>
<linearGradient id="paint10_linear_391_17" x1="138.575" y1="646.526" x2="124.992" y2="648.216" gradientUnits="userSpaceOnUse">
<stop stop-color="#E4F9F5"/>
<stop offset="0.97286" stop-color="#E4F9F5" stop-opacity="0"/>
</linearGradient>
<linearGradient id="paint11_linear_391_17" x1="140.623" y1="674.681" x2="131.435" y2="675.825" gradientUnits="userSpaceOnUse">
<stop stop-color="#E4F9F5"/>
<stop offset="0.97286" stop-color="#E4F9F5" stop-opacity="0"/>
</linearGradient>
<linearGradient id="paint12_linear_391_17" x1="157.902" y1="479.125" x2="139.717" y2="481.388" gradientUnits="userSpaceOnUse">
<stop stop-color="#E4F9F5"/>
<stop offset="0.97286" stop-color="#E4F9F5" stop-opacity="0"/>
</linearGradient>
<linearGradient id="paint13_linear_391_17" x1="183.902" y1="208.125" x2="165.717" y2="210.388" gradientUnits="userSpaceOnUse">
<stop stop-color="#E4F9F5"/>
<stop offset="0.97286" stop-color="#E4F9F5" stop-opacity="0"/>
</linearGradient>
<linearGradient id="paint14_linear_391_17" x1="197.392" y1="230.695" x2="187.779" y2="231.891" gradientUnits="userSpaceOnUse">
<stop stop-color="#E4F9F5"/>
<stop offset="0.97286" stop-color="#E4F9F5" stop-opacity="0"/>
</linearGradient>
<linearGradient id="paint15_linear_391_17" x1="133.249" y1="508.272" x2="123.162" y2="509.527" gradientUnits="userSpaceOnUse">
<stop stop-color="#E4F9F5"/>
<stop offset="0.97286" stop-color="#E4F9F5" stop-opacity="0"/>
</linearGradient>
<linearGradient id="paint16_linear_391_17" x1="259.238" y1="474.044" x2="206.598" y2="480.594" gradientUnits="userSpaceOnUse">
<stop stop-color="#E4F9F5"/>
<stop offset="0.97286" stop-color="#E4F9F5" stop-opacity="0"/>
</linearGradient>
</defs>
</svg>
