<svg width="264" height="677" viewBox="0 0 264 677" fill="none" xmlns="http://www.w3.org/2000/svg">
<circle cx="207.879" cy="554.001" r="92.7863" transform="rotate(-114.492 207.879 554.001)" fill="#D0F1EB"/>
<circle cx="207.879" cy="554.001" r="92.7863" transform="rotate(-114.492 207.879 554.001)" fill="url(#paint0_linear_391_18)"/>
<circle cx="207.879" cy="554.001" r="92.7863" transform="rotate(-114.492 207.879 554.001)" fill="#D0F1EB"/>
<circle cx="207.879" cy="554.001" r="92.7863" transform="rotate(-114.492 207.879 554.001)" fill="url(#paint1_linear_391_18)"/>
<circle cx="123.985" cy="385.934" r="55.9534" transform="rotate(160.893 123.985 385.934)" fill="#D0F1EB"/>
<circle cx="123.985" cy="385.934" r="55.9534" transform="rotate(160.893 123.985 385.934)" fill="url(#paint2_linear_391_18)"/>
<circle cx="240.836" cy="407.62" r="35.0614" transform="rotate(160.893 240.836 407.62)" fill="#D0F1EB"/>
<circle cx="240.836" cy="407.62" r="35.0614" transform="rotate(160.893 240.836 407.62)" fill="url(#paint3_linear_391_18)"/>
<circle cx="81.7332" cy="301.637" r="16.3674" transform="rotate(160.893 81.7332 301.637)" fill="#D0F1EB"/>
<circle cx="81.7332" cy="301.637" r="16.3674" transform="rotate(160.893 81.7332 301.637)" fill="url(#paint4_linear_391_18)"/>
<circle cx="20.8233" cy="319.043" r="16.3674" transform="rotate(160.893 20.8233 319.043)" fill="#D0F1EB"/>
<circle cx="20.8233" cy="319.043" r="16.3674" transform="rotate(160.893 20.8233 319.043)" fill="url(#paint5_linear_391_18)"/>
<circle cx="96.3307" cy="185.191" r="10.7346" transform="rotate(160.893 96.3307 185.191)" fill="#D0F1EB"/>
<circle cx="96.3307" cy="185.191" r="10.7346" transform="rotate(160.893 96.3307 185.191)" fill="url(#paint6_linear_391_18)"/>
<circle cx="61.4967" cy="122.549" r="46.055" transform="rotate(160.893 61.4967 122.549)" fill="#D0F1EB"/>
<circle cx="61.4967" cy="122.549" r="46.055" transform="rotate(160.893 61.4967 122.549)" fill="url(#paint7_linear_391_18)"/>
<circle cx="151.849" cy="112.604" r="28.2285" transform="rotate(160.893 151.849 112.604)" fill="#D0F1EB"/>
<circle cx="151.849" cy="112.604" r="28.2285" transform="rotate(160.893 151.849 112.604)" fill="url(#paint8_linear_391_18)"/>
<circle cx="115.161" cy="69.6055" r="15.5848" transform="rotate(160.893 115.161 69.6055)" fill="#D0F1EB"/>
<circle cx="115.161" cy="69.6055" r="15.5848" transform="rotate(160.893 115.161 69.6055)" fill="url(#paint9_linear_391_18)"/>
<circle cx="170.256" cy="44.3566" r="30.4769" transform="rotate(160.893 170.256 44.3566)" fill="#D0F1EB"/>
<circle cx="170.256" cy="44.3566" r="30.4769" transform="rotate(160.893 170.256 44.3566)" fill="url(#paint10_linear_391_18)"/>
<circle cx="121.949" cy="37.131" r="8.97495" transform="rotate(160.893 121.949 37.131)" fill="#D0F1EB"/>
<circle cx="121.949" cy="37.131" r="8.97495" transform="rotate(160.893 121.949 37.131)" fill="url(#paint11_linear_391_18)"/>
<circle cx="113.378" cy="7.72342" r="6.07079" transform="rotate(160.893 113.378 7.72342)" fill="#D0F1EB"/>
<circle cx="113.378" cy="7.72342" r="6.07079" transform="rotate(160.893 113.378 7.72342)" fill="url(#paint12_linear_391_18)"/>
<circle cx="119.384" cy="207.027" r="12.016" transform="rotate(160.893 119.384 207.027)" fill="#D0F1EB"/>
<circle cx="119.384" cy="207.027" r="12.016" transform="rotate(160.893 119.384 207.027)" fill="url(#paint13_linear_391_18)"/>
<circle cx="112.857" cy="479.193" r="12.016" transform="rotate(160.893 112.857 479.193)" fill="#D0F1EB"/>
<circle cx="112.857" cy="479.193" r="12.016" transform="rotate(160.893 112.857 479.193)" fill="url(#paint14_linear_391_18)"/>
<circle cx="88.9854" cy="454.778" r="6.35149" transform="rotate(160.893 88.9854 454.778)" fill="#D0F1EB"/>
<circle cx="88.9854" cy="454.778" r="6.35149" transform="rotate(160.893 88.9854 454.778)" fill="url(#paint15_linear_391_18)"/>
<circle cx="133.572" cy="173.479" r="6.66465" transform="rotate(160.893 133.572 173.479)" fill="#D0F1EB"/>
<circle cx="133.572" cy="173.479" r="6.66465" transform="rotate(160.893 133.572 173.479)" fill="url(#paint16_linear_391_18)"/>
<circle cx="54.0434" cy="230.886" r="34.7812" transform="rotate(160.893 54.0434 230.886)" fill="#D0F1EB"/>
<circle cx="54.0434" cy="230.886" r="34.7812" transform="rotate(160.893 54.0434 230.886)" fill="url(#paint17_linear_391_18)"/>
<defs>
<linearGradient id="paint0_linear_391_18" x1="348.307" y1="611.212" x2="207.879" y2="628.688" gradientUnits="userSpaceOnUse">
<stop stop-color="#E4F9F5"/>
<stop offset="0.97286" stop-color="#E4F9F5" stop-opacity="0"/>
</linearGradient>
<linearGradient id="paint1_linear_391_18" x1="348.307" y1="611.212" x2="207.879" y2="628.688" gradientUnits="userSpaceOnUse">
<stop stop-color="#E4F9F5"/>
<stop offset="0.97286" stop-color="#E4F9F5" stop-opacity="0"/>
</linearGradient>
<linearGradient id="paint2_linear_391_18" x1="208.668" y1="420.435" x2="123.985" y2="430.973" gradientUnits="userSpaceOnUse">
<stop stop-color="#E4F9F5"/>
<stop offset="0.97286" stop-color="#E4F9F5" stop-opacity="0"/>
</linearGradient>
<linearGradient id="paint3_linear_391_18" x1="293.9" y1="429.239" x2="240.836" y2="435.842" gradientUnits="userSpaceOnUse">
<stop stop-color="#E4F9F5"/>
<stop offset="0.97286" stop-color="#E4F9F5" stop-opacity="0"/>
</linearGradient>
<linearGradient id="paint4_linear_391_18" x1="106.505" y1="311.729" x2="81.7332" y2="314.811" gradientUnits="userSpaceOnUse">
<stop stop-color="#E4F9F5"/>
<stop offset="0.97286" stop-color="#E4F9F5" stop-opacity="0"/>
</linearGradient>
<linearGradient id="paint5_linear_391_18" x1="45.5946" y1="329.135" x2="20.8233" y2="332.218" gradientUnits="userSpaceOnUse">
<stop stop-color="#E4F9F5"/>
<stop offset="0.97286" stop-color="#E4F9F5" stop-opacity="0"/>
</linearGradient>
<linearGradient id="paint6_linear_391_18" x1="112.577" y1="191.81" x2="96.3306" y2="193.831" gradientUnits="userSpaceOnUse">
<stop stop-color="#E4F9F5"/>
<stop offset="0.97286" stop-color="#E4F9F5" stop-opacity="0"/>
</linearGradient>
<linearGradient id="paint7_linear_391_18" x1="131.199" y1="150.946" x2="61.4967" y2="159.62" gradientUnits="userSpaceOnUse">
<stop stop-color="#E4F9F5"/>
<stop offset="0.97286" stop-color="#E4F9F5" stop-opacity="0"/>
</linearGradient>
<linearGradient id="paint8_linear_391_18" x1="194.572" y1="130.009" x2="151.849" y2="135.326" gradientUnits="userSpaceOnUse">
<stop stop-color="#E4F9F5"/>
<stop offset="0.97286" stop-color="#E4F9F5" stop-opacity="0"/>
</linearGradient>
<linearGradient id="paint9_linear_391_18" x1="138.748" y1="79.215" x2="115.161" y2="82.1502" gradientUnits="userSpaceOnUse">
<stop stop-color="#E4F9F5"/>
<stop offset="0.97286" stop-color="#E4F9F5" stop-opacity="0"/>
</linearGradient>
<linearGradient id="paint10_linear_391_18" x1="216.381" y1="63.1484" x2="170.256" y2="68.8884" gradientUnits="userSpaceOnUse">
<stop stop-color="#E4F9F5"/>
<stop offset="0.97286" stop-color="#E4F9F5" stop-opacity="0"/>
</linearGradient>
<linearGradient id="paint11_linear_391_18" x1="135.532" y1="42.6649" x2="121.949" y2="44.3553" gradientUnits="userSpaceOnUse">
<stop stop-color="#E4F9F5"/>
<stop offset="0.97286" stop-color="#E4F9F5" stop-opacity="0"/>
</linearGradient>
<linearGradient id="paint12_linear_391_18" x1="122.566" y1="11.4666" x2="113.378" y2="12.61" gradientUnits="userSpaceOnUse">
<stop stop-color="#E4F9F5"/>
<stop offset="0.97286" stop-color="#E4F9F5" stop-opacity="0"/>
</linearGradient>
<linearGradient id="paint13_linear_391_18" x1="137.57" y1="214.436" x2="119.384" y2="216.699" gradientUnits="userSpaceOnUse">
<stop stop-color="#E4F9F5"/>
<stop offset="0.97286" stop-color="#E4F9F5" stop-opacity="0"/>
</linearGradient>
<linearGradient id="paint14_linear_391_18" x1="131.043" y1="486.602" x2="112.857" y2="488.865" gradientUnits="userSpaceOnUse">
<stop stop-color="#E4F9F5"/>
<stop offset="0.97286" stop-color="#E4F9F5" stop-opacity="0"/>
</linearGradient>
<linearGradient id="paint15_linear_391_18" x1="98.5981" y1="458.694" x2="88.9854" y2="459.89" gradientUnits="userSpaceOnUse">
<stop stop-color="#E4F9F5"/>
<stop offset="0.97286" stop-color="#E4F9F5" stop-opacity="0"/>
</linearGradient>
<linearGradient id="paint16_linear_391_18" x1="143.659" y1="177.588" x2="133.572" y2="178.843" gradientUnits="userSpaceOnUse">
<stop stop-color="#E4F9F5"/>
<stop offset="0.97286" stop-color="#E4F9F5" stop-opacity="0"/>
</linearGradient>
<linearGradient id="paint17_linear_391_18" x1="106.683" y1="252.332" x2="54.0434" y2="258.882" gradientUnits="userSpaceOnUse">
<stop stop-color="#E4F9F5"/>
<stop offset="0.97286" stop-color="#E4F9F5" stop-opacity="0"/>
</linearGradient>
</defs>
</svg>
