<svg width="360" height="237" viewBox="0 0 360 237" fill="none" xmlns="http://www.w3.org/2000/svg">
<circle cx="24.9332" cy="136.933" r="40.8147" transform="rotate(-65.8715 24.9332 136.933)" fill="#D0F1EB"/>
<circle cx="24.9332" cy="136.933" r="40.8147" transform="rotate(-65.8715 24.9332 136.933)" fill="url(#paint0_linear_425_17)"/>
<circle cx="94.4963" cy="128.164" r="17.0759" transform="rotate(-65.8715 94.4963 128.164)" fill="#D0F1EB"/>
<circle cx="94.4963" cy="128.164" r="17.0759" transform="rotate(-65.8715 94.4963 128.164)" fill="url(#paint1_linear_425_17)"/>
<circle cx="66.515" cy="204.899" r="24.2919" transform="rotate(-65.8715 66.515 204.899)" fill="#D0F1EB"/>
<circle cx="66.515" cy="204.899" r="24.2919" transform="rotate(-65.8715 66.515 204.899)" fill="url(#paint2_linear_425_17)"/>
<circle cx="18.0416" cy="211.258" r="9.76025" transform="rotate(-65.8715 18.0416 211.258)" fill="#D0F1EB"/>
<circle cx="18.0416" cy="211.258" r="9.76025" transform="rotate(-65.8715 18.0416 211.258)" fill="url(#paint3_linear_425_17)"/>
<circle cx="79.4697" cy="159.724" r="9.76025" transform="rotate(-65.8715 79.4697 159.724)" fill="#D0F1EB"/>
<circle cx="79.4697" cy="159.724" r="9.76025" transform="rotate(-65.8715 79.4697 159.724)" fill="url(#paint4_linear_425_17)"/>
<circle cx="360.103" cy="112.46" r="9.23766" transform="rotate(18.4009 360.103 112.46)" fill="#D0F1EB"/>
<circle cx="360.103" cy="112.46" r="9.23766" transform="rotate(18.4009 360.103 112.46)" fill="url(#paint5_linear_425_17)"/>
<circle cx="331.215" cy="152.94" r="22.2724" transform="rotate(18.4009 331.215 152.94)" fill="#D0F1EB"/>
<circle cx="331.215" cy="152.94" r="22.2724" transform="rotate(18.4009 331.215 152.94)" fill="url(#paint6_linear_425_17)"/>
<circle cx="359.634" cy="51.879" r="38.7716" transform="rotate(153.887 359.634 51.879)" fill="#D0F1EB"/>
<circle cx="359.634" cy="51.879" r="38.7716" transform="rotate(153.887 359.634 51.879)" fill="url(#paint7_linear_425_17)"/>
<circle cx="288.397" cy="107.588" r="25.7062" transform="rotate(153.887 288.397 107.588)" fill="#D0F1EB"/>
<circle cx="288.397" cy="107.588" r="25.7062" transform="rotate(153.887 288.397 107.588)" fill="url(#paint8_linear_425_17)"/>
<defs>
<linearGradient id="paint0_linear_425_17" x1="86.7043" y1="162.099" x2="24.9332" y2="169.786" gradientUnits="userSpaceOnUse">
<stop stop-color="#E4F9F5"/>
<stop offset="0.97286" stop-color="#E4F9F5" stop-opacity="0"/>
</linearGradient>
<linearGradient id="paint1_linear_425_17" x1="120.34" y1="138.693" x2="94.4963" y2="141.909" gradientUnits="userSpaceOnUse">
<stop stop-color="#E4F9F5"/>
<stop offset="0.97286" stop-color="#E4F9F5" stop-opacity="0"/>
</linearGradient>
<linearGradient id="paint2_linear_425_17" x1="103.28" y1="219.877" x2="66.515" y2="224.453" gradientUnits="userSpaceOnUse">
<stop stop-color="#E4F9F5"/>
<stop offset="0.97286" stop-color="#E4F9F5" stop-opacity="0"/>
</linearGradient>
<linearGradient id="paint3_linear_425_17" x1="32.8133" y1="217.276" x2="18.0416" y2="219.114" gradientUnits="userSpaceOnUse">
<stop stop-color="#E4F9F5"/>
<stop offset="0.97286" stop-color="#E4F9F5" stop-opacity="0"/>
</linearGradient>
<linearGradient id="paint4_linear_425_17" x1="94.2414" y1="165.742" x2="79.4697" y2="167.58" gradientUnits="userSpaceOnUse">
<stop stop-color="#E4F9F5"/>
<stop offset="0.97286" stop-color="#E4F9F5" stop-opacity="0"/>
</linearGradient>
<linearGradient id="paint5_linear_425_17" x1="374.084" y1="118.156" x2="360.103" y2="119.895" gradientUnits="userSpaceOnUse">
<stop stop-color="#E4F9F5"/>
<stop offset="0.97286" stop-color="#E4F9F5" stop-opacity="0"/>
</linearGradient>
<linearGradient id="paint6_linear_425_17" x1="364.923" y1="166.673" x2="331.215" y2="170.867" gradientUnits="userSpaceOnUse">
<stop stop-color="#E4F9F5"/>
<stop offset="0.97286" stop-color="#E4F9F5" stop-opacity="0"/>
</linearGradient>
<linearGradient id="paint7_linear_425_17" x1="418.313" y1="75.7852" x2="359.634" y2="83.0874" gradientUnits="userSpaceOnUse">
<stop stop-color="#E4F9F5"/>
<stop offset="0.97286" stop-color="#E4F9F5" stop-opacity="0"/>
</linearGradient>
<linearGradient id="paint8_linear_425_17" x1="327.302" y1="123.438" x2="288.397" y2="128.279" gradientUnits="userSpaceOnUse">
<stop stop-color="#E4F9F5"/>
<stop offset="0.97286" stop-color="#E4F9F5" stop-opacity="0"/>
</linearGradient>
</defs>
</svg>
