<svg width="334" height="241" viewBox="0 0 334 241" fill="none" xmlns="http://www.w3.org/2000/svg">
<circle cx="213.389" cy="120.389" r="95.7748" transform="rotate(-17.7268 213.389 120.389)" fill="#D0F1EB"/>
<circle cx="213.389" cy="120.389" r="95.7748" transform="rotate(-17.7268 213.389 120.389)" fill="url(#paint0_linear_295_22)"/>
<circle r="33.9572" transform="matrix(-0.965926 -0.258819 -0.258819 0.965926 70.5889 86.589)" fill="#D0F1EB"/>
<circle r="33.9572" transform="matrix(-0.965926 -0.258819 -0.258819 0.965926 70.5889 86.589)" fill="url(#paint1_linear_295_22)"/>
<circle r="14.6075" transform="matrix(0.301151 -0.953577 -0.953577 -0.301151 18.8905 129.89)" fill="#D0F1EB"/>
<circle r="14.6075" transform="matrix(0.301151 -0.953577 -0.953577 -0.301151 18.8905 129.89)" fill="url(#paint2_linear_295_22)"/>
<circle r="24.016" transform="matrix(-0.818144 0.575013 0.575013 0.818144 87.4581 173.458)" fill="#D0F1EB"/>
<circle r="24.016" transform="matrix(-0.818144 0.575013 0.575013 0.818144 87.4581 173.458)" fill="url(#paint3_linear_295_22)"/>
<defs>
<linearGradient id="paint0_linear_295_22" x1="358.339" y1="179.443" x2="213.389" y2="197.481" gradientUnits="userSpaceOnUse">
<stop stop-color="#E4F9F5"/>
<stop offset="0.97286" stop-color="#E4F9F5" stop-opacity="0"/>
</linearGradient>
<linearGradient id="paint1_linear_295_22" x1="85.3499" y1="54.895" x2="33.9572" y2="61.2905" gradientUnits="userSpaceOnUse">
<stop stop-color="#E4F9F5"/>
<stop offset="0.97286" stop-color="#E4F9F5" stop-opacity="0"/>
</linearGradient>
<linearGradient id="paint2_linear_295_22" x1="36.7152" y1="23.6143" x2="14.6075" y2="26.3655" gradientUnits="userSpaceOnUse">
<stop stop-color="#E4F9F5"/>
<stop offset="0.97286" stop-color="#E4F9F5" stop-opacity="0"/>
</linearGradient>
<linearGradient id="paint3_linear_295_22" x1="60.3631" y1="38.8241" x2="24.016" y2="43.3473" gradientUnits="userSpaceOnUse">
<stop stop-color="#E4F9F5"/>
<stop offset="0.97286" stop-color="#E4F9F5" stop-opacity="0"/>
</linearGradient>
</defs>
</svg>
